Open Sans-ExtraBold.ufo
<glyph name="parenright" format="1">
  <advance width="735"/>
  <unicode hex="0029"/>
  <note>
    parenright
  </note>
  <outline>
    <contour>
      <point x="57" y="-324" type="curve"/>
      <point x="381" y="-324" type="line"/>
      <point x="565" y="-111"/>
      <point x="662" y="205"/>
      <point x="662" y="582" type="curve" smooth="yes"/>
      <point x="662" y="959"/>
      <point x="566" y="1282"/>
      <point x="381" y="1503" type="curve"/>
      <point x="55" y="1503" type="line"/>
      <point x="228" y="1262"/>
      <point x="317" y="937"/>
      <point x="317" y="584" type="curve" smooth="yes"/>
      <point x="317" y="233"/>
      <point x="225" y="-95"/>
    </contour>
  </outline>
</glyph>
<glyph name="hyphen" format="1">
  <advance width="651"/>
  <unicode hex="002D"/>
  <outline>
    <contour>
      <point x="43" y="393" type="line"/>
      <point x="608" y="393" type="line"/>
      <point x="608" y="705" type="line"/>
      <point x="43" y="705" type="line"/>
    </contour>
  </outline>
</glyph>
<glyph name="eight" format="1">
  <advance width="1200"/>
  <unicode hex="0038"/>
  <outline>
    <contour>
      <point x="600" y="-20" type="curve" smooth="yes"/>
      <point x="937" y="-20"/>
      <point x="1135" y="129"/>
      <point x="1135" y="389" type="curve" smooth="yes"/>
      <point x="1135" y="530"/>
      <point x="1056" y="647"/>
      <point x="840" y="770" type="curve"/>
      <point x="1015" y="857"/>
      <point x="1092" y="971"/>
      <point x="1092" y="1126" type="curve" smooth="yes"/>
      <point x="1092" y="1354"/>
      <point x="912" y="1483"/>
      <point x="604" y="1483" type="curve" smooth="yes"/>
      <point x="296" y="1483"/>
      <point x="111" y="1352"/>
      <point x="111" y="1128" type="curve" smooth="yes"/>
      <point x="111" y="985"/>
      <point x="179" y="868"/>
      <point x="334" y="764" type="curve"/>
      <point x="142" y="667"/>
      <point x="68" y="554"/>
      <point x="68" y="385" type="curve" smooth="yes"/>
      <point x="68" y="124"/>
      <point x="256" y="-20"/>
    </contour>
    <contour>
      <point x="596" y="264" type="curve" smooth="yes"/>
      <point x="492" y="264"/>
      <point x="430" y="318"/>
      <point x="430" y="401" type="curve" smooth="yes"/>
      <point x="430" y="472"/>
      <point x="477" y="533"/>
      <point x="596" y="596" type="curve"/>
      <point x="728" y="517"/>
      <point x="772" y="458"/>
      <point x="772" y="393" type="curve" smooth="yes"/>
      <point x="772" y="307"/>
      <point x="713" y="264"/>
    </contour>
    <contour>
      <point x="598" y="940" type="curve"/>
      <point x="520" y="984"/>
      <point x="481" y="1035"/>
      <point x="481" y="1092" type="curve" smooth="yes"/>
      <point x="481" y="1155"/>
      <point x="534" y="1198"/>
      <point x="602" y="1198" type="curve" smooth="yes"/>
      <point x="667" y="1198"/>
      <point x="721" y="1156"/>
      <point x="721" y="1092" type="curve" smooth="yes"/>
      <point x="721" y="1035"/>
      <point x="693" y="995"/>
    </contour>
  </outline>
</glyph>
<glyph name="colon" format="1">
  <advance width="592"/>
  <unicode hex="003A"/>
  <note>
    colon
  </note>
  <outline>
    <contour>
      <point x="299" y="764" type="curve" smooth="yes"/>
      <point x="428" y="764"/>
      <point x="504" y="836"/>
      <point x="504" y="956" type="curve" smooth="yes"/>
      <point x="504" y="1077"/>
      <point x="431" y="1147"/>
      <point x="299" y="1147" type="curve" smooth="yes"/>
      <point x="162" y="1147"/>
      <point x="86" y="1077"/>
      <point x="86" y="956" type="curve" smooth="yes"/>
      <point x="86" y="836"/>
      <point x="163" y="764"/>
    </contour>
    <contour>
      <point x="299" y="-25" type="curve" smooth="yes"/>
      <point x="427" y="-25"/>
      <point x="504" y="46"/>
      <point x="504" y="166" type="curve" smooth="yes"/>
      <point x="504" y="289"/>
      <point x="431" y="358"/>
      <point x="299" y="358" type="curve" smooth="yes"/>
      <point x="160" y="358"/>
      <point x="86" y="289"/>
      <point x="86" y="166" type="curve" smooth="yes"/>
      <point x="86" y="45"/>
      <point x="167" y="-25"/>
    </contour>
  </outline>
</glyph>
<glyph name="question" format="1">
  <advance width="1034"/>
  <unicode hex="003F"/>
  <note>
    question
  </note>
  <outline>
    <contour>
      <point x="295" y="516" type="line"/>
      <point x="602" y="516" type="line"/>
      <point x="602" y="567" type="line" smooth="yes"/>
      <point x="602" y="596"/>
      <point x="611" y="621"/>
      <point x="629" y="642" type="curve" smooth="yes"/>
      <point x="646" y="663"/>
      <point x="690" y="696"/>
      <point x="760" y="741" type="curve" smooth="yes"/>
      <point x="834" y="788"/>
      <point x="889" y="836"/>
      <point x="928" y="890" type="curve" smooth="yes"/>
      <point x="975" y="955"/>
      <point x="997" y="1029"/>
      <point x="997" y="1118" type="curve" smooth="yes"/>
      <point x="997" y="1343"/>
      <point x="817" y="1483"/>
      <point x="520" y="1483" type="curve" smooth="yes"/>
      <point x="339" y="1483"/>
      <point x="166" y="1436"/>
      <point x="0" y="1341" type="curve"/>
      <point x="139" y="1069" type="line"/>
      <point x="274" y="1140"/>
      <point x="391" y="1176"/>
      <point x="492" y="1176" type="curve" smooth="yes"/>
      <point x="573" y="1176"/>
      <point x="629" y="1141"/>
      <point x="629" y="1085" type="curve" smooth="yes"/>
      <point x="629" y="1032"/>
      <point x="604" y="992"/>
      <point x="546" y="947" type="curve" smooth="yes"/>
      <point x="527" y="932"/>
      <point x="504" y="916"/>
      <point x="477" y="899" type="curve" smooth="yes"/>
      <point x="341" y="814"/>
      <point x="295" y="733"/>
      <point x="295" y="602" type="curve" smooth="yes"/>
    </contour>
    <contour>
      <point x="463" y="-25" type="curve" smooth="yes"/>
      <point x="591" y="-25"/>
      <point x="670" y="45"/>
      <point x="670" y="166" type="curve" smooth="yes"/>
      <point x="670" y="287"/>
      <point x="596" y="358"/>
      <point x="463" y="358" type="curve" smooth="yes"/>
      <point x="324" y="358"/>
      <point x="252" y="289"/>
      <point x="252" y="166" type="curve" smooth="yes"/>
      <point x="252" y="43"/>
      <point x="331" y="-25"/>
    </contour>
  </outline>
</glyph>
<glyph name="A" format="1">
  <advance width="1487"/>
  <unicode hex="0041"/>
  <outline>
    <contour>
      <point x="1487" y="0" type="line"/>
      <point x="1004" y="1468" type="line"/>
      <point x="477" y="1468" type="line"/>
      <point x="0" y="0" type="line"/>
      <point x="434" y="0" type="line"/>
      <point x="508" y="274" type="line"/>
      <point x="983" y="274" type="line"/>
      <point x="1055" y="0" type="line"/>
    </contour>
    <contour>
      <point x="590" y="598" type="line"/>
      <point x="651" y="827"/>
      <point x="690" y="981"/>
      <point x="708" y="1059" type="curve" smooth="yes"/>
      <point x="725" y="1137"/>
      <point x="737" y="1193"/>
      <point x="743" y="1227" type="curve"/>
      <point x="756" y="1154"/>
      <point x="809" y="945"/>
      <point x="838" y="838" type="curve" smooth="yes"/>
      <point x="901" y="598" type="line"/>
    </contour>
    <contour>
      <point x="744" y="0" type="move" name="bottom"/>
    </contour>
    <contour>
      <point x="1338" y="10" type="move" name="ogonek"/>
    </contour>
    <contour>
      <point x="744" y="1462" type="move" name="top"/>
    </contour>
  </outline>
</glyph>
<glyph name="D" format="1">
  <advance width="1503"/>
  <unicode hex="0044"/>
  <outline>
    <contour>
      <point x="1399" y="762" type="curve" smooth="yes"/>
      <point x="1399" y="1215"/>
      <point x="1133" y="1462"/>
      <point x="664" y="1462" type="curve" smooth="yes"/>
      <point x="158" y="1462" type="line"/>
      <point x="158" y="0" type="line"/>
      <point x="631" y="0" type="line" smooth="yes"/>
      <point x="1118" y="0"/>
      <point x="1399" y="274"/>
    </contour>
    <contour>
      <point x="989" y="748" type="curve" smooth="yes"/>
      <point x="989" y="461"/>
      <point x="881" y="324"/>
      <point x="641" y="324" type="curve" smooth="yes"/>
      <point x="553" y="324" type="line"/>
      <point x="553" y="1143" type="line"/>
      <point x="668" y="1143" type="line" smooth="yes"/>
      <point x="884" y="1143"/>
      <point x="989" y="1016"/>
    </contour>
    <contour>
      <point x="752" y="0" type="move" name="bottom"/>
    </contour>
    <contour>
      <point x="752" y="731" type="move" name="center"/>
    </contour>
    <contour>
      <point x="752" y="1462" type="move" name="top"/>
    </contour>
  </outline>
</glyph>
<glyph name="I" format="1">
  <advance width="713"/>
  <unicode hex="0049"/>
  <outline>
    <contour>
      <point x="555" y="0" type="line"/>
      <point x="555" y="1462" type="line"/>
      <point x="158" y="1462" type="line"/>
      <point x="158" y="0" type="line"/>
    </contour>
    <contour>
      <point x="357" y="0" type="move" name="bottom"/>
    </contour>
    <contour>
      <point x="642" y="10" type="move" name="ogonek"/>
    </contour>
    <contour>
      <point x="357" y="1462" type="move" name="top"/>
    </contour>
    <contour>
      <point x="20" y="1462" type="move" name="topleft"/>
    </contour>
  </outline>
</glyph>
<glyph name="K" format="1">
  <advance width="1407"/>
  <unicode hex="004B"/>
  <outline>
    <contour>
      <point x="954" y="807" type="line"/>
      <point x="1415" y="1462" type="line"/>
      <point x="983" y="1462" type="line"/>
      <point x="676" y="1014" type="line" smooth="yes"/>
      <point x="615" y="929"/>
      <point x="575" y="866"/>
      <point x="555" y="827" type="curve"/>
      <point x="555" y="1462" type="line"/>
      <point x="158" y="1462" type="line"/>
      <point x="158" y="0" type="line"/>
      <point x="555" y="0" type="line"/>
      <point x="555" y="489" type="line"/>
      <point x="672" y="559" type="line"/>
      <point x="961" y="0" type="line"/>
      <point x="1407" y="0" type="line"/>
    </contour>
    <contour>
      <point x="704" y="0" type="move" name="bottom"/>
    </contour>
    <contour>
      <point x="704" y="1462" type="move" name="top"/>
    </contour>
  </outline>
</glyph>
<glyph name="N" format="1">
  <advance width="1708"/>
  <unicode hex="004E"/>
  <outline>
    <contour>
      <point x="158" y="0" type="line"/>
      <point x="508" y="0" type="line"/>
      <point x="508" y="659" type="line" smooth="yes"/>
      <point x="508" y="744"/>
      <point x="502" y="868"/>
      <point x="489" y="1030" type="curve"/>
      <point x="498" y="1030" type="line"/>
      <point x="1032" y="0" type="line"/>
      <point x="1550" y="0" type="line"/>
      <point x="1550" y="1462" type="line"/>
      <point x="1198" y="1462" type="line"/>
      <point x="1198" y="801" type="line" smooth="yes"/>
      <point x="1198" y="712"/>
      <point x="1203" y="593"/>
      <point x="1212" y="446" type="curve"/>
      <point x="1206" y="446" type="line"/>
      <point x="674" y="1462" type="line"/>
      <point x="158" y="1462" type="line"/>
    </contour>
    <contour>
      <point x="854" y="0" type="move" name="bottom"/>
    </contour>
    <contour>
      <point x="854" y="1462" type="move" name="top"/>
    </contour>
  </outline>
</glyph>
<glyph name="P" format="1">
  <advance width="1294"/>
  <unicode hex="0050"/>
  <outline>
    <contour>
      <point x="158" y="0" type="line"/>
      <point x="553" y="0" type="line"/>
      <point x="553" y="485" type="line"/>
      <point x="664" y="485" type="line" smooth="yes"/>
      <point x="1019" y="485"/>
      <point x="1219" y="670"/>
      <point x="1219" y="997" type="curve" smooth="yes"/>
      <point x="1219" y="1294"/>
      <point x="1033" y="1462"/>
      <point x="664" y="1462" type="curve" smooth="yes"/>
      <point x="158" y="1462" type="line"/>
    </contour>
    <contour>
      <point x="553" y="807" type="line"/>
      <point x="553" y="1143" type="line"/>
      <point x="655" y="1143" type="line" smooth="yes"/>
      <point x="764" y="1143"/>
      <point x="819" y="1094"/>
      <point x="819" y="995" type="curve" smooth="yes"/>
      <point x="819" y="878"/>
      <point x="744" y="807"/>
      <point x="625" y="807" type="curve" smooth="yes"/>
    </contour>
    <contour>
      <point x="647" y="0" type="move" name="bottom"/>
    </contour>
    <contour>
      <point x="647" y="1462" type="move" name="top"/>
    </contour>
  </outline>
</glyph>
<glyph name="X" format="1">
  <advance width="1481"/>
  <unicode hex="0058"/>
  <outline>
    <contour>
      <point x="977" y="717" type="line"/>
      <point x="1440" y="1462" type="line"/>
      <point x="989" y="1462" type="line"/>
      <point x="735" y="1010" type="line"/>
      <point x="471" y="1462" type="line"/>
      <point x="33" y="1462" type="line"/>
      <point x="489" y="748" type="line"/>
      <point x="4" y="0" type="line"/>
      <point x="451" y="0" type="line"/>
      <point x="733" y="457" type="line"/>
      <point x="1018" y="0" type="line"/>
      <point x="1475" y="0" type="line"/>
    </contour>
    <contour>
      <point x="741" y="0" type="move" name="bottom"/>
    </contour>
    <contour>
      <point x="1393.64519" y="0" type="move" name="cyrillicbighook"/>
    </contour>
    <contour>
      <point x="741" y="1462" type="move" name="top"/>
    </contour>
  </outline>
</glyph>
<glyph name="Y" format="1">
  <advance width="1360"/>
  <unicode hex="0059"/>
  <outline>
    <contour>
      <point x="430" y="1462" type="line"/>
      <point x="0" y="1462" type="line"/>
      <point x="481" y="559" type="line"/>
      <point x="481" y="0" type="line"/>
      <point x="879" y="0" type="line"/>
      <point x="879" y="571" type="line"/>
      <point x="1360" y="1462" type="line"/>
      <point x="932" y="1462" type="line"/>
      <point x="680" y="920" type="line"/>
    </contour>
    <contour>
      <point x="680" y="0" type="move" name="bottom"/>
    </contour>
    <contour>
      <point x="680" y="1462" type="move" name="top"/>
    </contour>
    <contour>
      <point x="20" y="1462" type="move" name="topleft"/>
    </contour>
  </outline>
</glyph>
<glyph name="bracketleft" format="1">
  <advance width="664"/>
  <unicode hex="005B"/>
  <note>
    bracketleft
  </note>
  <outline>
    <contour>
      <point x="117" y="-344" type="line"/>
      <point x="616" y="-344" type="line"/>
      <point x="616" y="-90" type="line"/>
      <point x="434" y="-90" type="line"/>
      <point x="434" y="1249" type="line"/>
      <point x="616" y="1249" type="line"/>
      <point x="616" y="1503" type="line"/>
      <point x="117" y="1503" type="line"/>
    </contour>
  </outline>
</glyph>
<glyph name="c" format="1">
  <advance width="1104"/>
  <unicode hex="0063"/>
  <outline>
    <contour>
      <point x="651" y="-20" type="curve" smooth="yes"/>
      <point x="792" y="-20"/>
      <point x="913" y="13"/>
      <point x="1014" y="80" type="curve"/>
      <point x="1014" y="391" type="line"/>
      <point x="909" y="324"/>
      <point x="799" y="291"/>
      <point x="684" y="291" type="curve" smooth="yes"/>
      <point x="625" y="291"/>
      <point x="579" y="309"/>
      <point x="546" y="344" type="curve" smooth="yes"/>
      <point x="504" y="388"/>
      <point x="483" y="462"/>
      <point x="483" y="563" type="curve" smooth="yes"/>
      <point x="483" y="682"/>
      <point x="514" y="767"/>
      <point x="572" y="811" type="curve" smooth="yes"/>
      <point x="602" y="834"/>
      <point x="639" y="846"/>
      <point x="682" y="846" type="curve" smooth="yes"/>
      <point x="769" y="846"/>
      <point x="843" y="819"/>
      <point x="938" y="778" type="curve"/>
      <point x="1053" y="1067" type="line"/>
      <point x="937" y="1124"/>
      <point x="813" y="1153"/>
      <point x="682" y="1153" type="curve" smooth="yes"/>
      <point x="301" y="1153"/>
      <point x="86" y="937"/>
      <point x="86" y="561" type="curve" smooth="yes"/>
      <point x="86" y="186"/>
      <point x="280" y="-20"/>
    </contour>
    <contour>
      <point x="552" y="0" type="move" name="bottom"/>
    </contour>
    <contour>
      <point x="552" y="1133" type="move" name="top"/>
    </contour>
  </outline>
</glyph>
<glyph name="f" format="1">
  <advance width="846"/>
  <unicode hex="0066"/>
  <outline>
    <contour>
      <point x="195" y="0" type="line"/>
      <point x="586" y="0" type="line"/>
      <point x="586" y="840" type="line"/>
      <point x="827" y="840" type="line"/>
      <point x="827" y="1133" type="line"/>
      <point x="586" y="1133" type="line"/>
      <point x="586" y="1163" type="line" smooth="yes"/>
      <point x="586" y="1217"/>
      <point x="597" y="1250"/>
      <point x="621" y="1267" type="curve" smooth="yes"/>
      <point x="634" y="1276"/>
      <point x="651" y="1280"/>
      <point x="672" y="1280" type="curve" smooth="yes"/>
      <point x="718" y="1280"/>
      <point x="765" y="1273"/>
      <point x="813" y="1260" type="curve"/>
      <point x="897" y="1513" type="line"/>
      <point x="774" y="1553"/>
      <point x="692" y="1567"/>
      <point x="588" y="1567" type="curve" smooth="yes"/>
      <point x="319" y="1567"/>
      <point x="203" y="1446"/>
      <point x="203" y="1147" type="curve" smooth="yes"/>
      <point x="203" y="1128" type="line"/>
      <point x="45" y="1032" type="line"/>
      <point x="45" y="840" type="line"/>
      <point x="195" y="840" type="line"/>
    </contour>
    <contour>
      <point x="423" y="0" type="move" name="bottom"/>
    </contour>
    <contour>
      <point x="423" y="1133" type="move" name="top"/>
    </contour>
  </outline>
</glyph>
<glyph name="h" format="1">
  <advance width="1372"/>
  <unicode hex="0068"/>
  <outline>
    <contour>
      <point x="135" y="0" type="line"/>
      <point x="526" y="0" type="line"/>
      <point x="526" y="498" type="line" smooth="yes"/>
      <point x="526" y="647"/>
      <point x="547" y="743"/>
      <point x="592" y="795" type="curve" smooth="yes"/>
      <point x="622" y="830"/>
      <point x="662" y="846"/>
      <point x="713" y="846" type="curve" smooth="yes"/>
      <point x="803" y="846"/>
      <point x="848" y="770"/>
      <point x="848" y="618" type="curve" smooth="yes"/>
      <point x="848" y="0" type="line"/>
      <point x="1241" y="0" type="line"/>
      <point x="1241" y="737" type="line" smooth="yes"/>
      <point x="1241" y="1000"/>
      <point x="1093" y="1153"/>
      <point x="840" y="1153" type="curve" smooth="yes"/>
      <point x="704" y="1153"/>
      <point x="603" y="1110"/>
      <point x="528" y="993" type="curve"/>
      <point x="510" y="993" type="line"/>
      <point x="521" y="1121"/>
      <point x="526" y="1235"/>
      <point x="526" y="1335" type="curve" smooth="yes"/>
      <point x="526" y="1556" type="line"/>
      <point x="135" y="1556" type="line"/>
    </contour>
    <contour>
      <point x="686" y="0" type="move" name="bottom"/>
    </contour>
    <contour>
      <point x="686" y="544" type="move" name="center"/>
    </contour>
    <contour>
      <point x="686" y="1492" type="move" name="top"/>
    </contour>
  </outline>
</glyph>
<glyph name="o" format="1">
  <advance width="1305"/>
  <unicode hex="006F"/>
  <outline>
    <contour>
      <point x="649" y="-20" type="curve" smooth="yes"/>
      <point x="1008" y="-20"/>
      <point x="1217" y="198"/>
      <point x="1217" y="569" type="curve" smooth="yes"/>
      <point x="1217" y="923"/>
      <point x="1001" y="1153"/>
      <point x="655" y="1153" type="curve" smooth="yes"/>
      <point x="295" y="1153"/>
      <point x="86" y="938"/>
      <point x="86" y="569" type="curve" smooth="yes"/>
      <point x="86" y="208"/>
      <point x="305" y="-20"/>
    </contour>
    <contour>
      <point x="653" y="270" type="curve" smooth="yes"/>
      <point x="588" y="270"/>
      <point x="544" y="299"/>
      <point x="517" y="356" type="curve" smooth="yes"/>
      <point x="493" y="406"/>
      <point x="483" y="477"/>
      <point x="483" y="569" type="curve" smooth="yes"/>
      <point x="483" y="680"/>
      <point x="499" y="760"/>
      <point x="534" y="808" type="curve" smooth="yes"/>
      <point x="561" y="844"/>
      <point x="599" y="862"/>
      <point x="651" y="862" type="curve" smooth="yes"/>
      <point x="703" y="862"/>
      <point x="741" y="844"/>
      <point x="767" y="810" type="curve" smooth="yes"/>
      <point x="804" y="762"/>
      <point x="819" y="680.997"/>
      <point x="819" y="569" type="curve" smooth="yes"/>
      <point x="819" y="461"/>
      <point x="805" y="381"/>
      <point x="772" y="331" type="curve" smooth="yes"/>
      <point x="746" y="291"/>
      <point x="707" y="270"/>
    </contour>
    <contour>
      <point x="653" y="0" type="move" name="bottom"/>
    </contour>
    <contour>
      <point x="653" y="567" type="move" name="center"/>
    </contour>
    <contour>
      <point x="1174" y="10" type="move" name="ogonek"/>
    </contour>
    <contour>
      <point x="653" y="1133" type="move" name="top"/>
    </contour>
    <contour>
      <point x="1285" y="1133" type="move" name="topright"/>
    </contour>
  </outline>
</glyph>
<glyph name="u" format="1">
  <advance width="1372"/>
  <unicode hex="0075"/>
  <outline>
    <contour>
      <point x="528" y="-20" type="curve" smooth="yes"/>
      <point x="685" y="-20"/>
      <point x="805" y="37"/>
      <point x="870" y="141" type="curve"/>
      <point x="893" y="141" type="line"/>
      <point x="942" y="0" type="line"/>
      <point x="1237" y="0" type="line"/>
      <point x="1237" y="1133" type="line"/>
      <point x="846" y="1133" type="line"/>
      <point x="846" y="637" type="line" smooth="yes"/>
      <point x="846" y="509"/>
      <point x="833" y="421"/>
      <point x="802" y="366" type="curve" smooth="yes"/>
      <point x="772" y="312"/>
      <point x="725" y="289"/>
      <point x="659" y="289" type="curve" smooth="yes"/>
      <point x="563" y="289"/>
      <point x="524" y="366"/>
      <point x="524" y="514" type="curve" smooth="yes"/>
      <point x="524" y="1133" type="line"/>
      <point x="133" y="1133" type="line"/>
      <point x="133" y="395" type="line" smooth="yes"/>
      <point x="133" y="131"/>
      <point x="279" y="-20"/>
    </contour>
    <contour>
      <point x="686" y="0" type="move" name="bottom"/>
    </contour>
    <contour>
      <point x="1235" y="10" type="move" name="ogonek"/>
    </contour>
    <contour>
      <point x="686" y="1133" type="move" name="top"/>
    </contour>
    <contour>
      <point x="1352" y="1133" type="move" name="topright"/>
    </contour>
  </outline>
</glyph>
<glyph name="x" format="1">
  <advance width="1290"/>
  <unicode hex="0078"/>
  <outline>
    <contour>
      <point x="10" y="0" type="line"/>
      <point x="455" y="0" type="line"/>
      <point x="645" y="344" type="line"/>
      <point x="836" y="0" type="line"/>
      <point x="1280" y="0" type="line"/>
      <point x="911" y="578" type="line"/>
      <point x="1266" y="1133" type="line"/>
      <point x="821" y="1133" type="line"/>
      <point x="645" y="815" type="line"/>
      <point x="473" y="1133" type="line"/>
      <point x="29" y="1133" type="line"/>
      <point x="375" y="578" type="line"/>
    </contour>
    <contour>
      <point x="645" y="0" type="move" name="bottom"/>
    </contour>
    <contour>
      <point x="645" y="1133" type="move" name="top"/>
    </contour>
  </outline>
</glyph>
<glyph name="cent" format="1">
  <advance width="1200"/>
  <unicode hex="00A2"/>
  <note>
    cent
  </note>
  <outline>
    <contour>
      <point x="565" y="-20" type="line"/>
      <point x="772" y="-20" type="line"/>
      <point x="772" y="347" type="line"/>
      <point x="638" y="157" type="line"/>
      <point x="686" y="156" type="line"/>
      <point x="825" y="156"/>
      <point x="949" y="188"/>
      <point x="1057" y="258" type="curve"/>
      <point x="1057" y="569" type="line"/>
      <point x="952" y="502"/>
      <point x="842" y="469"/>
      <point x="727" y="469" type="curve" smooth="yes"/>
      <point x="664" y="469"/>
      <point x="616" y="489"/>
      <point x="583" y="529" type="curve" smooth="yes"/>
      <point x="545" y="574"/>
      <point x="526" y="645"/>
      <point x="526" y="741" type="curve" smooth="yes"/>
      <point x="526" y="849"/>
      <point x="552" y="929"/>
      <point x="600" y="976" type="curve" smooth="yes"/>
      <point x="632" y="1008"/>
      <point x="674" y="1024"/>
      <point x="725" y="1024" type="curve" smooth="yes"/>
      <point x="812" y="1024"/>
      <point x="886" y="997"/>
      <point x="981" y="956" type="curve"/>
      <point x="1096" y="1245" type="line"/>
      <point x="980" y="1302"/>
      <point x="856" y="1331"/>
      <point x="725" y="1331" type="curve"/>
      <point x="643" y="1327" type="line"/>
      <point x="772" y="1142" type="line"/>
      <point x="772" y="1483" type="line"/>
      <point x="565" y="1483" type="line"/>
      <point x="565" y="1317" type="line"/>
      <point x="285" y="1262"/>
      <point x="129" y="1059"/>
      <point x="129" y="739" type="curve" smooth="yes"/>
      <point x="129" y="403"/>
      <point x="282" y="207"/>
      <point x="565" y="166" type="curve"/>
    </contour>
  </outline>
</glyph>
<glyph name="Eth" format="1">
  <advance width="1503"/>
  <unicode hex="00D0"/>
  <note>
    Eth
  </note>
  <outline>
    <contour>
      <point x="158" y="0" type="line"/>
      <point x="631" y="0" type="line" smooth="yes"/>
      <point x="1118" y="0"/>
      <point x="1399" y="274"/>
      <point x="1399" y="762" type="curve" smooth="yes"/>
      <point x="1399" y="1215"/>
      <point x="1133" y="1462"/>
      <point x="664" y="1462" type="curve" smooth="yes"/>
      <point x="158" y="1462" type="line"/>
      <point x="158" y="883" type="line"/>
      <point x="31" y="883" type="line"/>
      <point x="31" y="563" type="line"/>
      <point x="158" y="563" type="line"/>
    </contour>
    <contour>
      <point x="553" y="324" type="line"/>
      <point x="553" y="563" type="line"/>
      <point x="764" y="563" type="line"/>
      <point x="764" y="883" type="line"/>
      <point x="553" y="883" type="line"/>
      <point x="553" y="1143" type="line"/>
      <point x="668" y="1143" type="line" smooth="yes"/>
      <point x="884" y="1143"/>
      <point x="989" y="1016"/>
      <point x="989" y="748" type="curve" smooth="yes"/>
      <point x="989" y="461"/>
      <point x="881" y="324"/>
      <point x="641" y="324" type="curve" smooth="yes"/>
    </contour>
  </outline>
</glyph>
<glyph name="germandbls" format="1">
  <advance width="1536"/>
  <unicode hex="00DF"/>
  <note>
    germandbls
  </note>
  <outline>
    <contour>
      <point x="987" y="-20" type="curve" smooth="yes"/>
      <point x="1320" y="-20"/>
      <point x="1477" y="86"/>
      <point x="1477" y="338" type="curve" smooth="yes"/>
      <point x="1477" y="406"/>
      <point x="1466" y="460"/>
      <point x="1436" y="509" type="curve" smooth="yes"/>
      <point x="1395" y="576"/>
      <point x="1319" y="635"/>
      <point x="1189" y="709" type="curve" smooth="yes"/>
      <point x="1146" y="733"/>
      <point x="1116" y="750"/>
      <point x="1096" y="767" type="curve" smooth="yes"/>
      <point x="1080" y="781"/>
      <point x="1071" y="795"/>
      <point x="1071" y="809" type="curve" smooth="yes"/>
      <point x="1071" y="832"/>
      <point x="1097" y="852"/>
      <point x="1141" y="884" type="curve" smooth="yes"/>
      <point x="1181" y="913"/>
      <point x="1230" y="953"/>
      <point x="1270" y="1003" type="curve" smooth="yes"/>
      <point x="1310" y="1053"/>
      <point x="1339" y="1114"/>
      <point x="1339" y="1195" type="curve" smooth="yes"/>
      <point x="1339" y="1427"/>
      <point x="1105" y="1567"/>
      <point x="761" y="1567" type="curve" smooth="yes"/>
      <point x="370" y="1567"/>
      <point x="135" y="1387"/>
      <point x="135" y="1100" type="curve" smooth="yes"/>
      <point x="135" y="0" type="line"/>
      <point x="526" y="0" type="line"/>
      <point x="526" y="1059" type="line" smooth="yes"/>
      <point x="526" y="1198"/>
      <point x="601" y="1268"/>
      <point x="746" y="1268" type="curve" smooth="yes"/>
      <point x="868" y="1268"/>
      <point x="938" y="1219"/>
      <point x="938" y="1145" type="curve" smooth="yes"/>
      <point x="938" y="1076"/>
      <point x="877" y="1031"/>
      <point x="799" y="974" type="curve" smooth="yes"/>
      <point x="707" y="906"/>
      <point x="659" y="847"/>
      <point x="659" y="752" type="curve" smooth="yes"/>
      <point x="659" y="648"/>
      <point x="716" y="578"/>
      <point x="883" y="494" type="curve" smooth="yes"/>
      <point x="987" y="442"/>
      <point x="1069" y="401"/>
      <point x="1069" y="339" type="curve" smooth="yes"/>
      <point x="1069" y="283"/>
      <point x="1013" y="250"/>
      <point x="933" y="250" type="curve" smooth="yes"/>
      <point x="845" y="250"/>
      <point x="718" y="290"/>
      <point x="653" y="330" type="curve"/>
      <point x="653" y="39" type="line"/>
      <point x="720" y="1"/>
      <point x="839" y="-20"/>
    </contour>
    <contour>
      <point x="768" y="0" type="move" name="bottom"/>
    </contour>
    <contour>
      <point x="768" y="1133" type="move" name="top"/>
    </contour>
  </outline>
</glyph>
<glyph name="eth" format="1">
  <advance width="1313"/>
  <unicode hex="00F0"/>
  <note>
    eth
  </note>
  <outline>
    <contour>
      <point x="649" y="-20" type="curve" smooth="yes"/>
      <point x="1000" y="-20"/>
      <point x="1217" y="213"/>
      <point x="1217" y="580" type="curve" smooth="yes"/>
      <point x="1217" y="871"/>
      <point x="1136" y="1087"/>
      <point x="924" y="1296" type="curve"/>
      <point x="1069" y="1393" type="line"/>
      <point x="954" y="1575" type="line"/>
      <point x="745" y="1438" type="line"/>
      <point x="684" y="1479"/>
      <point x="595" y="1524"/>
      <point x="479" y="1573" type="curve"/>
      <point x="371" y="1391" type="line"/>
      <point x="421" y="1360"/>
      <point x="470" y="1329"/>
      <point x="520" y="1298" type="curve"/>
      <point x="377" y="1206" type="line"/>
      <point x="494" y="1022" type="line"/>
      <point x="676" y="1141" type="line"/>
      <point x="727" y="1090"/>
      <point x="774" y="1021"/>
      <point x="819" y="934" type="curve"/>
      <point x="811" y="930" type="line"/>
      <point x="776" y="986"/>
      <point x="695" y="1014"/>
      <point x="567" y="1014" type="curve" smooth="yes"/>
      <point x="276" y="1014"/>
      <point x="88" y="817"/>
      <point x="88" y="498" type="curve" smooth="yes"/>
      <point x="88" y="178"/>
      <point x="304" y="-20"/>
    </contour>
    <contour>
      <point x="653" y="258" type="curve" smooth="yes"/>
      <point x="544" y="258"/>
      <point x="489" y="339"/>
      <point x="489" y="500" type="curve" smooth="yes"/>
      <point x="489" y="661"/>
      <point x="530" y="733"/>
      <point x="653" y="733" type="curve" smooth="yes"/>
      <point x="752" y="733"/>
      <point x="817" y="657"/>
      <point x="817" y="545" type="curve" smooth="yes"/>
      <point x="817" y="352"/>
      <point x="774" y="258"/>
    </contour>
  </outline>
</glyph>
<glyph name="divide" format="1">
  <advance width="1159"/>
  <unicode hex="00F7"/>
  <note>
    divide
  </note>
  <outline>
    <contour>
      <point x="72" y="588" type="line"/>
      <point x="1085" y="588" type="line"/>
      <point x="1085" y="856" type="line"/>
      <point x="72" y="856" type="line"/>
    </contour>
    <contour>
      <point x="578" y="162" type="curve" smooth="yes"/>
      <point x="671" y="162"/>
      <point x="735" y="225"/>
      <point x="735" y="332" type="curve" smooth="yes"/>
      <point x="735" y="443"/>
      <point x="678" y="502"/>
      <point x="578" y="502" type="curve" smooth="yes"/>
      <point x="475" y="502"/>
      <point x="422" y="441"/>
      <point x="422" y="332" type="curve" smooth="yes"/>
      <point x="422" y="223"/>
      <point x="483" y="162"/>
    </contour>
    <contour>
      <point x="578" y="942" type="curve" smooth="yes"/>
      <point x="671" y="942"/>
      <point x="735" y="1005"/>
      <point x="735" y="1112" type="curve" smooth="yes"/>
      <point x="735" y="1223"/>
      <point x="678" y="1282"/>
      <point x="578" y="1282" type="curve" smooth="yes"/>
      <point x="475" y="1282"/>
      <point x="422" y="1221"/>
      <point x="422" y="1112" type="curve" smooth="yes"/>
      <point x="422" y="1003"/>
      <point x="483" y="942"/>
    </contour>
  </outline>
</glyph>
<glyph name="Hbar" format="1">
  <advance width="1602"/>
  <unicode hex="0126"/>
  <note>
    Hbar
  </note>
  <outline>
    <contour>
      <point x="0" y="1300" type="line"/>
      <point x="0" y="1067" type="line"/>
      <point x="174" y="1067" type="line"/>
      <point x="174" y="0" type="line"/>
      <point x="569" y="0" type="line"/>
      <point x="569" y="596" type="line"/>
      <point x="1030" y="596" type="line"/>
      <point x="1030" y="0" type="line"/>
      <point x="1427" y="0" type="line"/>
      <point x="1427" y="1067" type="line"/>
      <point x="1602" y="1067" type="line"/>
      <point x="1602" y="1300" type="line"/>
      <point x="1427" y="1300" type="line"/>
      <point x="1427" y="1462" type="line"/>
      <point x="1030" y="1462" type="line"/>
      <point x="1030" y="1300" type="line"/>
      <point x="569" y="1300" type="line"/>
      <point x="569" y="1462" type="line"/>
      <point x="174" y="1462" type="line"/>
      <point x="174" y="1300" type="line"/>
    </contour>
    <contour>
      <point x="569" y="920" type="line"/>
      <point x="569" y="1067" type="line"/>
      <point x="1030" y="1067" type="line"/>
      <point x="1030" y="920" type="line"/>
    </contour>
  </outline>
</glyph>
<glyph name="kgreenlandic" format="1">
  <advance width="1350"/>
  <unicode hex="0138"/>
  <note>
    kgreenlandic
  </note>
  <outline>
    <contour>
      <point x="135" y="0" type="line"/>
      <point x="528" y="0" type="line"/>
      <point x="528" y="301" type="line"/>
      <point x="657" y="399" type="line"/>
      <point x="909" y="0" type="line"/>
      <point x="1350" y="0" type="line"/>
      <point x="926" y="637" type="line"/>
      <point x="1331" y="1133" type="line"/>
      <point x="893" y="1133" type="line"/>
      <point x="647" y="817" type="line" smooth="yes"/>
      <point x="596" y="751"/>
      <point x="557" y="692"/>
      <point x="526" y="643" type="curve"/>
      <point x="518" y="643" type="line"/>
      <point x="525" y="728"/>
      <point x="528" y="809"/>
      <point x="528" y="887" type="curve" smooth="yes"/>
      <point x="528" y="1133" type="line"/>
      <point x="135" y="1133" type="line"/>
    </contour>
    <contour>
      <point x="675" y="0" type="move" name="bottom"/>
    </contour>
    <contour>
      <point x="675" y="1133" type="move" name="top"/>
    </contour>
  </outline>
</glyph>
<glyph name="lslash" format="1">
  <advance width="854"/>
  <unicode hex="0142"/>
  <note>
    lslash
  </note>
  <outline>
    <contour>
      <point x="625" y="1556" type="line"/>
      <point x="233" y="1556" type="line"/>
      <point x="233" y="735" type="line"/>
      <point x="-31" y="584" type="line"/>
      <point x="109" y="336" type="line"/>
      <point x="233" y="403" type="line"/>
      <point x="233" y="0" type="line"/>
      <point x="625" y="0" type="line"/>
      <point x="625" y="639" type="line"/>
      <point x="885" y="793" type="line"/>
      <point x="739" y="1040" type="line"/>
      <point x="625" y="971" type="line"/>
    </contour>
  </outline>
</glyph>
<glyph name="longs" format="1">
  <advance width="825"/>
  <unicode hex="017F"/>
  <note>
    longs
  </note>
  <outline>
    <contour>
      <point x="135" y="0" type="line"/>
      <point x="526" y="0" type="line"/>
      <point x="526" y="1137" type="line" smooth="yes"/>
      <point x="526" y="1186"/>
      <point x="532" y="1220"/>
      <point x="544" y="1244" type="curve" smooth="yes"/>
      <point x="561" y="1274"/>
      <point x="590" y="1286"/>
      <point x="635" y="1286" type="curve" smooth="yes"/>
      <point x="694" y="1286"/>
      <point x="708" y="1276"/>
      <point x="791" y="1253" type="curve"/>
      <point x="866" y="1513" type="line"/>
      <point x="781" y="1549"/>
      <point x="676" y="1567"/>
      <point x="551" y="1567" type="curve" smooth="yes"/>
      <point x="250" y="1567"/>
      <point x="135" y="1456"/>
      <point x="135" y="1145" type="curve" smooth="yes"/>
    </contour>
    <contour>
      <point x="413" y="0" type="move" name="bottom"/>
    </contour>
    <contour>
      <point x="413" y="1133" type="move" name="top"/>
    </contour>
  </outline>
</glyph>
<glyph name="Ohorn" format="1">
  <advance width="1731"/>
  <unicode hex="01A0"/>
  <note>
    Ohorn
  </note>
  <outline>
    <contour>
      <point x="815" y="-20" type="curve" smooth="yes"/>
      <point x="1282" y="-20"/>
      <point x="1528" y="242"/>
      <point x="1528" y="733" type="curve" smooth="yes"/>
      <point x="1528" y="858"/>
      <point x="1515" y="970"/>
      <point x="1489" y="1067" type="curve"/>
      <point x="1665" y="1143"/>
      <point x="1757" y="1270"/>
      <point x="1812" y="1534" type="curve"/>
      <point x="1798" y="1556" type="line"/>
      <point x="1423" y="1556" type="line"/>
      <point x="1423" y="1463"/>
      <point x="1410" y="1389"/>
      <point x="1358" y="1290" type="curve"/>
      <point x="1241" y="1420"/>
      <point x="1062" y="1485"/>
      <point x="821" y="1485" type="curve" smooth="yes"/>
      <point x="356" y="1485"/>
      <point x="104" y="1222"/>
      <point x="104" y="735" type="curve" smooth="yes"/>
      <point x="104" y="246"/>
      <point x="356" y="-20"/>
    </contour>
    <contour>
      <point x="815" y="309" type="curve" smooth="yes"/>
      <point x="618" y="309"/>
      <point x="520" y="450"/>
      <point x="520" y="733" type="curve" smooth="yes"/>
      <point x="520" y="1018"/>
      <point x="619" y="1161"/>
      <point x="817" y="1161" type="curve" smooth="yes"/>
      <point x="1014" y="1161"/>
      <point x="1112" y="1022"/>
      <point x="1112" y="733" type="curve" smooth="yes"/>
      <point x="1112" y="448"/>
      <point x="1016" y="309"/>
    </contour>
    <contour>
      <point x="866" y="0" type="move" name="bottom"/>
    </contour>
    <contour>
      <point x="866" y="1462" type="move" name="top"/>
    </contour>
  </outline>
</glyph>
<glyph name="uhorn" format="1">
  <advance width="1659"/>
  <unicode hex="01B0"/>
  <note>
    uhorn
  </note>
  <outline>
    <contour>
      <point x="528" y="-20" type="curve" smooth="yes"/>
      <point x="679" y="-20"/>
      <point x="801" y="36"/>
      <point x="866" y="141" type="curve"/>
      <point x="893" y="141" type="line"/>
      <point x="942" y="0" type="line"/>
      <point x="1237" y="0" type="line"/>
      <point x="1237" y="774" type="line"/>
      <point x="1396" y="800"/>
      <point x="1499" y="851"/>
      <point x="1573" y="922" type="curve" smooth="yes"/>
      <point x="1651" y="997"/>
      <point x="1697" y="1094"/>
      <point x="1733" y="1276" type="curve"/>
      <point x="1718" y="1298" type="line"/>
      <point x="1341" y="1298" type="line"/>
      <point x="1341" y="1233"/>
      <point x="1333" y="1174"/>
      <point x="1319" y="1125" type="curve" smooth="yes"/>
      <point x="1301" y="1064"/>
      <point x="1273" y="1019"/>
      <point x="1237" y="999" type="curve"/>
      <point x="1237" y="1133" type="line"/>
      <point x="844" y="1133" type="line"/>
      <point x="844" y="637" type="line" smooth="yes"/>
      <point x="844" y="385"/>
      <point x="790" y="289"/>
      <point x="668" y="289" type="curve" smooth="yes"/>
      <point x="563" y="289"/>
      <point x="524" y="359"/>
      <point x="524" y="514" type="curve" smooth="yes"/>
      <point x="524" y="1133" type="line"/>
      <point x="133" y="1133" type="line"/>
      <point x="133" y="395" type="line" smooth="yes"/>
      <point x="133" y="132"/>
      <point x="278" y="-20"/>
    </contour>
    <contour>
      <point x="830" y="0" type="move" name="bottom"/>
    </contour>
    <contour>
      <point x="830" y="1133" type="move" name="top"/>
    </contour>
  </outline>
</glyph>
<glyph name="jdotless" format="1">
  <advance width="664"/>
  <unicode hex="0237"/>
  <note>
    uni0237
  </note>
  <outline>
    <contour>
      <point x="106" y="-492" type="curve" smooth="yes"/>
      <point x="374" y="-492"/>
      <point x="526" y="-341"/>
      <point x="526" y="-92" type="curve" smooth="yes"/>
      <point x="526" y="1133" type="line"/>
      <point x="135" y="1133" type="line"/>
      <point x="135" y="-10" type="line" smooth="yes"/>
      <point x="135" y="-76"/>
      <point x="121" y="-123"/>
      <point x="94" y="-151" type="curve" smooth="yes"/>
      <point x="75" y="-170"/>
      <point x="49" y="-180"/>
      <point x="16" y="-180" type="curve" smooth="yes"/>
      <point x="-21" y="-180"/>
      <point x="-61" y="-174"/>
      <point x="-104" y="-162" type="curve"/>
      <point x="-104" y="-467" type="line"/>
      <point x="-55" y="-480"/>
      <point x="42" y="-492"/>
    </contour>
    <contour>
      <point x="332" y="0" type="move" name="bottom"/>
    </contour>
    <contour>
      <point x="332" y="1133" type="move" name="top"/>
    </contour>
  </outline>
</glyph>
<glyph name="apostrophemod" format="1">
  <advance width="512"/>
  <unicode hex="02BC"/>
  <note>
    afii57929
  </note>
  <outline>
    <contour>
      <point x="37" y="877" type="curve"/>
      <point x="315" y="877" type="line"/>
      <point x="372" y="1007"/>
      <point x="431" y="1194"/>
      <point x="492" y="1438" type="curve"/>
      <point x="477" y="1460" type="line"/>
      <point x="135" y="1460" type="line"/>
      <point x="115" y="1283"/>
      <point x="82" y="1088"/>
    </contour>
  </outline>
</glyph>
<glyph name="gravecomb" format="1">
  <advance width="0"/>
  <unicode hex="0300"/>
  <note>
    gravecomb
  </note>
  <outline>
    <contour>
      <point x="-712" y="1241" type="curve"/>
      <point x="-452" y="1241" type="line"/>
      <point x="-452" y="1270" type="line"/>
      <point x="-607" y="1439"/>
      <point x="-678" y="1521"/>
      <point x="-714" y="1569" type="curve"/>
      <point x="-1144" y="1569" type="line"/>
      <point x="-1144" y="1548" type="line"/>
      <point x="-1019" y="1449"/>
      <point x="-804" y="1300"/>
    </contour>
    <contour>
      <point x="-668" y="1123" type="move" name="_top"/>
    </contour>
    <contour>
      <point x="-798" y="1569" type="move" name="top"/>
    </contour>
  </outline>
</glyph>
<glyph name="acutecomb" format="1">
  <advance width="0"/>
  <unicode hex="0301"/>
  <note>
    acutecomb
  </note>
  <outline>
    <contour>
      <point x="-939" y="1241" type="line"/>
      <point x="-679" y="1241" type="line"/>
      <point x="-583" y="1301"/>
      <point x="-354" y="1463"/>
      <point x="-247" y="1548" type="curve"/>
      <point x="-247" y="1569" type="line"/>
      <point x="-675" y="1569" type="line"/>
      <point x="-732" y="1490"/>
      <point x="-822" y="1394"/>
      <point x="-939" y="1270" type="curve"/>
    </contour>
    <contour>
      <point x="-723" y="1133" type="move" name="_top"/>
    </contour>
    <contour>
      <point x="-593" y="1569" type="move" name="top"/>
    </contour>
  </outline>
</glyph>
<glyph name="circumflexcomb" format="1">
  <advance width="1237"/>
  <unicode hex="0302"/>
  <note>
    circumflex
  </note>
  <outline>
    <contour>
      <point x="164" y="1241" type="line"/>
      <point x="422" y="1241" type="line"/>
      <point x="447" y="1257"/>
      <point x="478" y="1279"/>
      <point x="514" y="1307" type="curve" smooth="yes"/>
      <point x="544" y="1331"/>
      <point x="578" y="1359"/>
      <point x="616" y="1391" type="curve"/>
      <point x="656" y="1356"/>
      <point x="693" y="1326"/>
      <point x="727" y="1301" type="curve" smooth="yes"/>
      <point x="760" y="1277"/>
      <point x="790" y="1257"/>
      <point x="817" y="1241" type="curve"/>
      <point x="1071" y="1241" type="line"/>
      <point x="1071" y="1270" type="line"/>
      <point x="963" y="1378"/>
      <point x="878" y="1478"/>
      <point x="815" y="1569" type="curve"/>
      <point x="422" y="1569" type="line"/>
      <point x="371" y="1492"/>
      <point x="256" y="1357"/>
      <point x="164" y="1270" type="curve"/>
    </contour>
    <contour>
      <point x="618" y="1133" type="move" name="_top"/>
    </contour>
    <contour>
      <point x="618" y="1569" type="move" name="top"/>
    </contour>
  </outline>
</glyph>
<glyph name="tildecomb" format="1">
  <advance width="0"/>
  <unicode hex="0303"/>
  <note>
    tildecomb
  </note>
  <outline>
    <contour>
      <point x="-1179" y="1237" type="curve"/>
      <point x="-999" y="1237" type="line"/>
      <point x="-987" y="1302"/>
      <point x="-963" y="1335"/>
      <point x="-927" y="1335" type="curve" smooth="yes"/>
      <point x="-878" y="1335"/>
      <point x="-822" y="1311"/>
      <point x="-763" y="1287" type="curve" smooth="yes"/>
      <point x="-704" y="1263"/>
      <point x="-643" y="1239"/>
      <point x="-583" y="1239" type="curve" smooth="yes"/>
      <point x="-438" y="1239"/>
      <point x="-352" y="1358"/>
      <point x="-337" y="1581" type="curve"/>
      <point x="-519" y="1581" type="line"/>
      <point x="-531" y="1517"/>
      <point x="-552" y="1483"/>
      <point x="-591" y="1483" type="curve" smooth="yes"/>
      <point x="-642" y="1483"/>
      <point x="-700" y="1507"/>
      <point x="-759" y="1531" type="curve" smooth="yes"/>
      <point x="-818" y="1555"/>
      <point x="-876" y="1579"/>
      <point x="-927" y="1579" type="curve" smooth="yes"/>
      <point x="-1086" y="1579"/>
      <point x="-1164" y="1470"/>
    </contour>
    <contour>
      <point x="-758" y="1133" type="move" name="_top"/>
    </contour>
    <contour>
      <point x="-758" y="1581" type="move" name="top"/>
    </contour>
  </outline>
</glyph>
<glyph name="brevecomb" format="1">
  <advance width="1225"/>
  <unicode hex="0306"/>
  <note>
    breve
  </note>
  <outline>
    <contour>
      <point x="610" y="1241" type="curve" smooth="yes"/>
      <point x="853" y="1241"/>
      <point x="1005" y="1384"/>
      <point x="1018" y="1612" type="curve"/>
      <point x="799" y="1612" type="line"/>
      <point x="774" y="1521"/>
      <point x="718" y="1481"/>
      <point x="610" y="1481" type="curve" smooth="yes"/>
      <point x="483" y="1481"/>
      <point x="447" y="1508"/>
      <point x="420" y="1612" type="curve"/>
      <point x="209" y="1612" type="line"/>
      <point x="221" y="1371"/>
      <point x="361" y="1241"/>
    </contour>
    <contour>
      <point x="614" y="1133" type="move" name="_top"/>
    </contour>
    <contour>
      <point x="614" y="1612" type="move" name="top"/>
    </contour>
  </outline>
</glyph>
<glyph name="dotaccentcomb" format="1">
  <advance width="666"/>
  <unicode hex="0307"/>
  <note>
    dotaccent
  </note>
  <outline>
    <contour>
      <point x="334" y="1243" type="curve" smooth="yes"/>
      <point x="473" y="1243"/>
      <point x="543" y="1300"/>
      <point x="543" y="1415" type="curve" smooth="yes"/>
      <point x="543" y="1530"/>
      <point x="479" y="1589"/>
      <point x="334" y="1589" type="curve" smooth="yes"/>
      <point x="189" y="1589"/>
      <point x="127" y="1532"/>
      <point x="127" y="1415" type="curve" smooth="yes"/>
      <point x="127" y="1300"/>
      <point x="196" y="1243"/>
    </contour>
    <contour>
      <point x="335" y="1133" type="move" name="_top"/>
    </contour>
    <contour>
      <point x="335" y="1589" type="move" name="top"/>
    </contour>
  </outline>
</glyph>
<glyph name="dieresiscomb" format="1">
  <advance width="1233"/>
  <unicode hex="0308"/>
  <note>
    dieresis
  </note>
  <outline>
    <contour>
      <point x="874" y="1257" type="curve" smooth="yes"/>
      <point x="981" y="1257"/>
      <point x="1047" y="1318"/>
      <point x="1047" y="1413" type="curve" smooth="yes"/>
      <point x="1047" y="1509"/>
      <point x="981" y="1571"/>
      <point x="874" y="1571" type="curve" smooth="yes"/>
      <point x="767" y="1571"/>
      <point x="702" y="1513"/>
      <point x="702" y="1413" type="curve" smooth="yes"/>
      <point x="702" y="1316"/>
      <point x="766" y="1257"/>
    </contour>
    <contour>
      <point x="393" y="1257" type="curve" smooth="yes"/>
      <point x="498" y="1257"/>
      <point x="565" y="1318"/>
      <point x="565" y="1413" type="curve" smooth="yes"/>
      <point x="565" y="1510"/>
      <point x="498" y="1571"/>
      <point x="393" y="1571" type="curve" smooth="yes"/>
      <point x="289" y="1571"/>
      <point x="223" y="1513"/>
      <point x="223" y="1413" type="curve" smooth="yes"/>
      <point x="223" y="1314"/>
      <point x="289" y="1257"/>
    </contour>
    <contour>
      <point x="635" y="1133" type="move" name="_top"/>
    </contour>
    <contour>
      <point x="635" y="1571" type="move" name="top"/>
    </contour>
  </outline>
</glyph>
<glyph name="hookabovecomb" format="1">
  <advance width="0"/>
  <unicode hex="0309"/>
  <note>
    hookabovecomb
  </note>
  <outline>
    <contour>
      <point x="-793" y="1225" type="line"/>
      <point x="-586" y="1225" type="line"/>
      <point x="-575" y="1272" type="line"/>
      <point x="-460" y="1303"/>
      <point x="-406" y="1379"/>
      <point x="-406" y="1483" type="curve" smooth="yes"/>
      <point x="-406" y="1628"/>
      <point x="-507" y="1712"/>
      <point x="-698" y="1712" type="curve" smooth="yes"/>
      <point x="-783" y="1712"/>
      <point x="-856" y="1702"/>
      <point x="-918" y="1681" type="curve"/>
      <point x="-918" y="1477" type="line"/>
      <point x="-838" y="1504"/>
      <point x="-820" y="1505"/>
      <point x="-780" y="1505" type="curve" smooth="yes"/>
      <point x="-739" y="1505"/>
      <point x="-709" y="1481"/>
      <point x="-709" y="1442" type="curve" smooth="yes"/>
      <point x="-709" y="1393"/>
      <point x="-733" y="1365"/>
      <point x="-821" y="1354" type="curve"/>
    </contour>
    <contour>
      <point x="-662" y="1133" type="move" name="_top"/>
    </contour>
    <contour>
      <point x="-662" y="1712" type="move" name="top"/>
    </contour>
  </outline>
</glyph>
<glyph name="ringcomb" format="1">
  <advance width="1120"/>
  <unicode hex="030A"/>
  <note>
    ring
  </note>
  <outline>
    <contour>
      <point x="557" y="1237" type="curve" smooth="yes"/>
      <point x="717" y="1237"/>
      <point x="829" y="1340"/>
      <point x="829" y="1491" type="curve" smooth="yes"/>
      <point x="829" y="1640"/>
      <point x="714" y="1743"/>
      <point x="557" y="1743" type="curve" smooth="yes"/>
      <point x="396" y="1743"/>
      <point x="293" y="1644"/>
      <point x="293" y="1489" type="curve" smooth="yes"/>
      <point x="293" y="1336"/>
      <point x="396" y="1237"/>
    </contour>
    <contour>
      <point x="557" y="1405" type="curve" smooth="yes"/>
      <point x="501" y="1405"/>
      <point x="473" y="1440"/>
      <point x="473" y="1489" type="curve" smooth="yes"/>
      <point x="473" y="1540"/>
      <point x="510" y="1573"/>
      <point x="557" y="1573" type="curve" smooth="yes"/>
      <point x="604" y="1573"/>
      <point x="641" y="1540"/>
      <point x="641" y="1489" type="curve" smooth="yes"/>
      <point x="641" y="1440"/>
      <point x="604" y="1405"/>
    </contour>
    <contour>
      <point x="561" y="1133" type="move" name="_top"/>
    </contour>
    <contour>
      <point x="561" y="1743" type="move" name="top"/>
    </contour>
  </outline>
</glyph>
<glyph name="caroncomb" format="1">
  <advance width="1237"/>
  <unicode hex="030C"/>
  <note>
    caron
  </note>
  <outline>
    <contour>
      <point x="422" y="1241" type="curve"/>
      <point x="815" y="1241" type="line"/>
      <point x="832" y="1267"/>
      <point x="854" y="1296"/>
      <point x="879" y="1326" type="curve" smooth="yes"/>
      <point x="938" y="1398"/>
      <point x="1009" y="1478"/>
      <point x="1071" y="1540" type="curve"/>
      <point x="1071" y="1569" type="line"/>
      <point x="817" y="1569" type="line"/>
      <point x="761" y="1537"/>
      <point x="694" y="1487"/>
      <point x="616" y="1419" type="curve"/>
      <point x="533" y="1490"/>
      <point x="468" y="1540"/>
      <point x="422" y="1569" type="curve"/>
      <point x="164" y="1569" type="line"/>
      <point x="164" y="1540" type="line"/>
      <point x="231" y="1474"/>
      <point x="300" y="1399"/>
      <point x="354" y="1332" type="curve" smooth="yes"/>
      <point x="381" y="1299"/>
      <point x="405" y="1268"/>
    </contour>
    <contour>
      <point x="618" y="1133" type="move" name="_top"/>
    </contour>
    <contour>
      <point x="618" y="1569" type="move" name="top"/>
    </contour>
  </outline>
</glyph>
<glyph name="dblgravecomb" format="1">
  <advance width="0"/>
  <unicode hex="030F"/>
  <note>
    uni030F
  </note>
  <outline>
    <contour>
      <point x="-571" y="1241" type="curve"/>
      <point x="-369" y="1241" type="line"/>
      <point x="-369" y="1270" type="line"/>
      <point x="-424" y="1346"/>
      <point x="-498" y="1469"/>
      <point x="-543" y="1569" type="curve"/>
      <point x="-885" y="1569" type="line"/>
      <point x="-885" y="1548" type="line"/>
      <point x="-846" y="1484"/>
      <point x="-682" y="1328"/>
    </contour>
    <contour>
      <point x="-995" y="1241" type="curve"/>
      <point x="-793" y="1241" type="line"/>
      <point x="-793" y="1270" type="line"/>
      <point x="-845" y="1341"/>
      <point x="-922" y="1476"/>
      <point x="-965" y="1569" type="curve"/>
      <point x="-1307" y="1569" type="line"/>
      <point x="-1307" y="1548" type="line"/>
      <point x="-1271" y="1488"/>
      <point x="-1106" y="1328"/>
    </contour>
    <contour>
      <point x="-838" y="1133" type="move" name="_top"/>
    </contour>
    <contour>
      <point x="-838" y="1569" type="move" name="top"/>
    </contour>
  </outline>
</glyph>
<glyph name="commaturnedabovecomb" format="1">
  <advance width="600"/>
  <unicode hex="0312"/>
  <outline>
    <contour>
      <point x="99" y="1241" type="line"/>
      <point x="456" y="1241" type="line"/>
      <point x="463" y="1318"/>
      <point x="478" y="1417"/>
      <point x="501" y="1540" type="curve"/>
      <point x="501" y="1569" type="line"/>
      <point x="269" y="1569" type="line"/>
      <point x="192" y="1467"/>
      <point x="146" y="1366"/>
      <point x="99" y="1264" type="curve"/>
    </contour>
    <contour>
      <point x="300" y="1133" type="move" name="_top"/>
    </contour>
    <contour>
      <point x="300" y="1569" type="move" name="top"/>
    </contour>
  </outline>
</glyph>
<glyph name="dotbelowcomb" format="1">
  <advance width="0"/>
  <unicode hex="0323"/>
  <note>
    dotbelowcomb
  </note>
  <outline>
    <contour>
      <point x="-2" y="-479" type="curve" smooth="yes"/>
      <point x="138" y="-479"/>
      <point x="208" y="-421"/>
      <point x="208" y="-305" type="curve" smooth="yes"/>
      <point x="208" y="-190"/>
      <point x="144" y="-131"/>
      <point x="-2" y="-131" type="curve" smooth="yes"/>
      <point x="-146" y="-131"/>
      <point x="-208" y="-188"/>
      <point x="-208" y="-305" type="curve" smooth="yes"/>
      <point x="-208" y="-422"/>
      <point x="-142" y="-479"/>
    </contour>
    <contour>
      <point x="-1" y="0" type="move" name="_bottom"/>
    </contour>
    <contour>
      <point x="-1" y="-479" type="move" name="bottom"/>
    </contour>
  </outline>
</glyph>
<glyph name="commaaccentcomb" format="1">
  <advance width="600"/>
  <unicode hex="0326"/>
  <outline>
    <contour>
      <point x="113" y="-453" type="line"/>
      <point x="347" y="-453" type="line"/>
      <point x="412" y="-359"/>
      <point x="468" y="-257"/>
      <point x="515" y="-147" type="curve"/>
      <point x="515" y="-125" type="line"/>
      <point x="160" y="-125" type="line"/>
      <point x="157" y="-209"/>
      <point x="134" y="-349"/>
      <point x="113" y="-424" type="curve"/>
    </contour>
    <contour>
      <point x="314" y="0" type="move" name="_bottom"/>
    </contour>
    <contour>
      <point x="314" y="-453" type="move" name="bottom"/>
    </contour>
  </outline>
</glyph>
<glyph name="cedillacomb" format="1">
  <advance width="383"/>
  <unicode hex="0327"/>
  <note>
    cedilla
  </note>
  <outline>
    <contour>
      <point x="123" y="-492" type="curve" smooth="yes"/>
      <point x="288" y="-492"/>
      <point x="397" y="-397"/>
      <point x="397" y="-252" type="curve" smooth="yes"/>
      <point x="397" y="-149"/>
      <point x="355" y="-81"/>
      <point x="227" y="-29" type="curve"/>
      <point x="236" y="0" type="line"/>
      <point x="33" y="0" type="line"/>
      <point x="-39" y="-139" type="line"/>
      <point x="49" y="-159"/>
      <point x="109" y="-194"/>
      <point x="109" y="-238" type="curve" smooth="yes"/>
      <point x="109" y="-269"/>
      <point x="92" y="-285"/>
      <point x="57" y="-285" type="curve" smooth="yes"/>
      <point x="14" y="-285"/>
      <point x="-35" y="-276"/>
      <point x="-90" y="-258" type="curve"/>
      <point x="-90" y="-463" type="line"/>
      <point x="-39" y="-482"/>
      <point x="32" y="-492"/>
    </contour>
    <contour>
      <point x="154" y="0" type="move" name="_bottom"/>
    </contour>
    <contour>
      <point x="154" y="-492" type="move" name="bottom"/>
    </contour>
  </outline>
</glyph>
<glyph name="ogonekcomb" format="1">
  <advance width="434"/>
  <unicode hex="0328"/>
  <note>
    ogonek
  </note>
  <outline>
    <contour>
      <point x="270" y="-492" type="curve" smooth="yes"/>
      <point x="331" y="-492"/>
      <point x="389" y="-483"/>
      <point x="444" y="-465" type="curve"/>
      <point x="444" y="-244" type="line"/>
      <point x="412" y="-259"/>
      <point x="373" y="-266"/>
      <point x="326" y="-266" type="curve" smooth="yes"/>
      <point x="274" y="-266"/>
      <point x="248" y="-244"/>
      <point x="248" y="-199" type="curve" smooth="yes"/>
      <point x="248" y="-131"/>
      <point x="309" y="-66"/>
      <point x="381" y="0" type="curve"/>
      <point x="168" y="0" type="line"/>
      <point x="43" y="-88"/>
      <point x="-6" y="-168"/>
      <point x="-6" y="-260" type="curve" smooth="yes"/>
      <point x="-6" y="-397"/>
      <point x="107" y="-492"/>
    </contour>
    <contour>
      <point x="451" y="10" type="move" name="_ogonek"/>
    </contour>
  </outline>
</glyph>
<glyph name="tonos" format="1">
  <advance width="1108"/>
  <unicode hex="0384"/>
  <note>
    tonos
  </note>
  <outline>
    <contour>
      <point x="406" y="1241" type="line"/>
      <point x="631" y="1241" type="line"/>
      <point x="706" y="1362"/>
      <point x="770" y="1482"/>
      <point x="825" y="1602" type="curve"/>
      <point x="825" y="1628" type="line"/>
      <point x="481" y="1628" type="line"/>
      <point x="469" y="1544"/>
      <point x="433" y="1365"/>
      <point x="406" y="1274" type="curve"/>
    </contour>
    <contour>
      <point x="610.712" y="1112" type="move" name="_top"/>
    </contour>
    <contour>
      <point x="786.474" y="1556" type="move" name="_topleft"/>
    </contour>
  </outline>
</glyph>
<glyph name="Epsilon" format="1">
  <advance width="1124"/>
  <unicode hex="0395"/>
  <note>
    Epsilon
  </note>
  <outline>
    <component base="E"/>
    <contour>
      <point x="24.681" y="1462" type="move" name="topleft"/>
    </contour>
  </outline>
</glyph>
<glyph name="Iota" format="1">
  <advance width="713"/>
  <unicode hex="0399"/>
  <note>
    Iota
  </note>
  <outline>
    <component base="I"/>
    <contour>
      <point x="25.998" y="1462" type="move" name="topleft"/>
    </contour>
  </outline>
</glyph>
<glyph name="Pi" format="1">
  <advance width="1513"/>
  <unicode hex="03A0"/>
  <note>
    Pi
  </note>
  <outline>
    <contour>
      <point x="158" y="0" type="line"/>
      <point x="555" y="0" type="line"/>
      <point x="555" y="1139" type="line"/>
      <point x="958" y="1139" type="line"/>
      <point x="958" y="0" type="line"/>
      <point x="1356" y="0" type="line"/>
      <point x="1356" y="1462" type="line"/>
      <point x="158" y="1462" type="line"/>
    </contour>
  </outline>
</glyph>
<glyph name="delta" format="1">
  <advance width="1303"/>
  <unicode hex="03B4"/>
  <note>
    delta
  </note>
  <outline>
    <contour>
      <point x="645" y="-20" type="curve" smooth="yes"/>
      <point x="1006" y="-20"/>
      <point x="1217" y="159"/>
      <point x="1217" y="479" type="curve" smooth="yes"/>
      <point x="1217" y="577"/>
      <point x="1199" y="662"/>
      <point x="1161" y="737" type="curve" smooth="yes"/>
      <point x="1106" y="850"/>
      <point x="1008" y="941"/>
      <point x="864" y="1020" type="curve" smooth="yes"/>
      <point x="741" y="1089"/>
      <point x="666" y="1134"/>
      <point x="641" y="1155" type="curve" smooth="yes"/>
      <point x="615" y="1176"/>
      <point x="602" y="1198"/>
      <point x="602" y="1219" type="curve" smooth="yes"/>
      <point x="602" y="1262"/>
      <point x="642" y="1284"/>
      <point x="723" y="1284" type="curve" smooth="yes"/>
      <point x="815" y="1284"/>
      <point x="932" y="1249"/>
      <point x="1073" y="1178" type="curve"/>
      <point x="1219" y="1460" type="line"/>
      <point x="1060" y="1537"/>
      <point x="893" y="1575"/>
      <point x="717" y="1575" type="curve" smooth="yes"/>
      <point x="401" y="1575"/>
      <point x="229" y="1459"/>
      <point x="229" y="1251" type="curve" smooth="yes"/>
      <point x="229" y="1110"/>
      <point x="301" y="993"/>
      <point x="446" y="899" type="curve"/>
      <point x="206" y="820"/>
      <point x="86" y="666"/>
      <point x="86" y="438" type="curve" smooth="yes"/>
      <point x="86" y="158"/>
      <point x="308" y="-20"/>
    </contour>
    <contour>
      <point x="649" y="270" type="curve" smooth="yes"/>
      <point x="548" y="270"/>
      <point x="483" y="345"/>
      <point x="483" y="461" type="curve" smooth="yes"/>
      <point x="483" y="533"/>
      <point x="503" y="599"/>
      <point x="536" y="651" type="curve" smooth="yes"/>
      <point x="566" y="699"/>
      <point x="607" y="734"/>
      <point x="655" y="750" type="curve"/>
      <point x="764" y="672"/>
      <point x="819" y="582"/>
      <point x="819" y="481" type="curve" smooth="yes"/>
      <point x="819" y="348"/>
      <point x="754" y="270"/>
    </contour>
  </outline>
</glyph>
<glyph name="iota" format="1">
  <advance width="891"/>
  <unicode hex="03B9"/>
  <note>
    iota
  </note>
  <outline>
    <contour>
      <point x="541" y="-20" type="curve" smooth="yes"/>
      <point x="658" y="-20"/>
      <point x="761" y="1"/>
      <point x="850" y="43" type="curve"/>
      <point x="850" y="330" type="line"/>
      <point x="770" y="301"/>
      <point x="714" y="287"/>
      <point x="641" y="287" type="curve" smooth="yes"/>
      <point x="563" y="287"/>
      <point x="524" y="321"/>
      <point x="524" y="389" type="curve" smooth="yes"/>
      <point x="524" y="1133" type="line"/>
      <point x="133" y="1133" type="line"/>
      <point x="133" y="371" type="line" smooth="yes"/>
      <point x="133" y="112"/>
      <point x="261" y="-20"/>
    </contour>
    <contour>
      <point x="366" y="1133" type="move" name="top"/>
    </contour>
  </outline>
</glyph>
<glyph name="sigma" format="1">
  <advance width="1395"/>
  <unicode hex="03C3"/>
  <note>
    sigma
  </note>
  <outline>
    <contour>
      <point x="664" y="-20" type="curve" smooth="yes"/>
      <point x="783" y="-20"/>
      <point x="887" y="0"/>
      <point x="974" y="41" type="curve" smooth="yes"/>
      <point x="1149" y="121"/>
      <point x="1245" y="278"/>
      <point x="1245" y="477" type="curve" smooth="yes"/>
      <point x="1245" y="632"/>
      <point x="1184" y="754"/>
      <point x="1063" y="842" type="curve"/>
      <point x="1341" y="842" type="line"/>
      <point x="1341" y="1133" type="line"/>
      <point x="766" y="1133" type="line" smooth="yes"/>
      <point x="301" y="1133"/>
      <point x="86" y="941"/>
      <point x="86" y="524" type="curve" smooth="yes"/>
      <point x="86" y="185"/>
      <point x="307" y="-20"/>
    </contour>
    <contour>
      <point x="668" y="291" type="curve" smooth="yes"/>
      <point x="608" y="291"/>
      <point x="561" y="314"/>
      <point x="529" y="357" type="curve" smooth="yes"/>
      <point x="501" y="397"/>
      <point x="485" y="454"/>
      <point x="485" y="526" type="curve" smooth="yes"/>
      <point x="485" y="646"/>
      <point x="505" y="728"/>
      <point x="549" y="779" type="curve" smooth="yes"/>
      <point x="587" y="822"/>
      <point x="644" y="842"/>
      <point x="723" y="842" type="curve" smooth="yes"/>
      <point x="745" y="842" type="line"/>
      <point x="778" y="796"/>
      <point x="801" y="760"/>
      <point x="813" y="733" type="curve" smooth="yes"/>
      <point x="837" y="680"/>
      <point x="848" y="622"/>
      <point x="848" y="537" type="curve" smooth="yes"/>
      <point x="848" y="448"/>
      <point x="830" y="382"/>
      <point x="794" y="342" type="curve" smooth="yes"/>
      <point x="765" y="308"/>
      <point x="723" y="291"/>
    </contour>
  </outline>
</glyph>
<glyph name="chi" format="1">
  <advance width="1323"/>
  <unicode hex="03C7"/>
  <note>
    chi
  </note>
  <outline>
    <contour>
      <point x="-53" y="-492" type="line"/>
      <point x="385" y="-492" type="line"/>
      <point x="629" y="35" type="line"/>
      <point x="702" y="-188" type="line" smooth="yes"/>
      <point x="734" y="-290"/>
      <point x="776" y="-365"/>
      <point x="831" y="-415" type="curve" smooth="yes"/>
      <point x="889" y="-467"/>
      <point x="962" y="-492"/>
      <point x="1053" y="-492" type="curve" smooth="yes"/>
      <point x="1142" y="-492"/>
      <point x="1222" y="-478"/>
      <point x="1294" y="-451" type="curve"/>
      <point x="1294" y="-170" type="line"/>
      <point x="1259" y="-179"/>
      <point x="1224" y="-184"/>
      <point x="1188" y="-184" type="curve" smooth="yes"/>
      <point x="1157" y="-184"/>
      <point x="1130" y="-172"/>
      <point x="1107" y="-149" type="curve" smooth="yes"/>
      <point x="1089" y="-131"/>
      <point x="1074" y="-106"/>
      <point x="1061" y="-74" type="curve" smooth="yes"/>
      <point x="881" y="381" type="line"/>
      <point x="1303" y="1133" type="line"/>
      <point x="895" y="1133" type="line"/>
      <point x="707" y="754" type="line"/>
      <point x="666" y="860" type="line" smooth="yes"/>
      <point x="630" y="955"/>
      <point x="590" y="1022"/>
      <point x="540" y="1068" type="curve" smooth="yes"/>
      <point x="475" y="1127"/>
      <point x="392" y="1151"/>
      <point x="272" y="1151" type="curve" smooth="yes"/>
      <point x="205" y="1151"/>
      <point x="136" y="1138"/>
      <point x="66" y="1112" type="curve"/>
      <point x="66" y="819" type="line"/>
      <point x="114" y="836"/>
      <point x="158" y="844"/>
      <point x="199" y="844" type="curve" smooth="yes"/>
      <point x="237" y="844"/>
      <point x="270" y="827"/>
      <point x="297" y="793" type="curve" smooth="yes"/>
      <point x="312" y="774"/>
      <point x="325" y="750"/>
      <point x="336" y="721" type="curve" smooth="yes"/>
      <point x="455" y="408" type="line"/>
    </contour>
  </outline>
</glyph>
<glyph name="piSymbol" format="1">
  <advance width="2179"/>
  <unicode hex="03D6"/>
  <note>
    omega1
  </note>
  <outline>
    <contour>
      <point x="743" y="-20" type="curve" smooth="yes"/>
      <point x="906" y="-20"/>
      <point x="1016" y="46"/>
      <point x="1083" y="209" type="curve"/>
      <point x="1096" y="209" type="line"/>
      <point x="1157" y="50"/>
      <point x="1269" y="-20"/>
      <point x="1434" y="-20" type="curve" smooth="yes"/>
      <point x="1551" y="-20"/>
      <point x="1649" y="8"/>
      <point x="1725" y="60" type="curve" smooth="yes"/>
      <point x="1857" y="150"/>
      <point x="1927" y="313"/>
      <point x="1927" y="535" type="curve" smooth="yes"/>
      <point x="1927" y="616"/>
      <point x="1910" y="718"/>
      <point x="1876" y="842" type="curve"/>
      <point x="2118" y="842" type="line"/>
      <point x="2118" y="1133" type="line"/>
      <point x="256" y="1133" type="line"/>
      <point x="61" y="1008" type="line"/>
      <point x="61" y="842" type="line"/>
      <point x="303" y="842" type="line"/>
      <point x="269" y="744"/>
      <point x="252" y="642"/>
      <point x="252" y="535" type="curve" smooth="yes"/>
      <point x="252" y="341"/>
      <point x="304" y="193"/>
      <point x="403" y="99" type="curve" smooth="yes"/>
      <point x="485" y="21"/>
      <point x="599" y="-20"/>
    </contour>
    <contour>
      <point x="776" y="283" type="curve" smooth="yes"/>
      <point x="720" y="283"/>
      <point x="684" y="301"/>
      <point x="661" y="348" type="curve" smooth="yes"/>
      <point x="641" y="389"/>
      <point x="633" y="452"/>
      <point x="633" y="545" type="curve" smooth="yes"/>
      <point x="633" y="649"/>
      <point x="657" y="777"/>
      <point x="684" y="842" type="curve"/>
      <point x="1493" y="842" type="line"/>
      <point x="1528" y="713"/>
      <point x="1546" y="611"/>
      <point x="1546" y="537" type="curve" smooth="yes"/>
      <point x="1546" y="443"/>
      <point x="1535" y="378"/>
      <point x="1511" y="338" type="curve" smooth="yes"/>
      <point x="1488" y="300"/>
      <point x="1452" y="283"/>
      <point x="1401" y="283" type="curve" smooth="yes"/>
      <point x="1336" y="283"/>
      <point x="1303" y="313"/>
      <point x="1288" y="374" type="curve" smooth="yes"/>
      <point x="1280" y="404"/>
      <point x="1276" y="463"/>
      <point x="1276" y="551" type="curve" smooth="yes"/>
      <point x="1276" y="664" type="line"/>
      <point x="903" y="664" type="line"/>
      <point x="903" y="551" type="line" smooth="yes"/>
      <point x="903" y="472"/>
      <point x="899" y="415"/>
      <point x="892" y="382" type="curve" smooth="yes"/>
      <point x="876" y="315"/>
      <point x="841" y="283"/>
    </contour>
  </outline>
</glyph>
<glyph name="Ze-cy" format="1">
  <advance width="1364"/>
  <unicode hex="0417"/>
  <note>
    afii10025
  </note>
  <outline>
    <contour>
      <point x="653" y="-20" type="curve" smooth="yes"/>
      <point x="989" y="-20"/>
      <point x="1268" y="119"/>
      <point x="1268" y="418" type="curve" smooth="yes"/>
      <point x="1268" y="619"/>
      <point x="1132" y="741"/>
      <point x="868" y="764" type="curve"/>
      <point x="868" y="772" type="line"/>
      <point x="1097" y="811"/>
      <point x="1212" y="927"/>
      <point x="1212" y="1120" type="curve" smooth="yes"/>
      <point x="1212" y="1337"/>
      <point x="1001" y="1483"/>
      <point x="680" y="1483" type="curve" smooth="yes"/>
      <point x="425" y="1483"/>
      <point x="263" y="1441"/>
      <point x="88" y="1329" type="curve"/>
      <point x="254" y="1057" type="line"/>
      <point x="355" y="1125"/>
      <point x="471" y="1159"/>
      <point x="604" y="1159" type="curve" smooth="yes"/>
      <point x="745" y="1159"/>
      <point x="815" y="1122"/>
      <point x="815" y="1049" type="curve" smooth="yes"/>
      <point x="815" y="934"/>
      <point x="687" y="922"/>
      <point x="508" y="922" type="curve" smooth="yes"/>
      <point x="354" y="922" type="line"/>
      <point x="354" y="602" type="line"/>
      <point x="526" y="602" type="line" smooth="yes"/>
      <point x="750" y="602"/>
      <point x="862" y="553"/>
      <point x="862" y="455" type="curve" smooth="yes"/>
      <point x="862" y="325"/>
      <point x="729" y="303"/>
      <point x="551" y="303" type="curve" smooth="yes"/>
      <point x="408" y="303"/>
      <point x="209" y="342"/>
      <point x="96" y="399" type="curve"/>
      <point x="96" y="59" type="line"/>
      <point x="235" y="6"/>
      <point x="420" y="-20"/>
    </contour>
    <contour>
      <point x="682" y="0" type="move" name="bottom"/>
    </contour>
    <contour>
      <point x="682" y="1462" type="move" name="top"/>
    </contour>
  </outline>
</glyph>
<glyph name="Ii-cy" format="1">
  <advance width="1731"/>
  <unicode hex="0418"/>
  <note>
    afii10026
  </note>
  <outline>
    <contour>
      <point x="158" y="0" type="line"/>
      <point x="645" y="0" type="line"/>
      <point x="1233" y="1028" type="line"/>
      <point x="1241" y="1028" type="line"/>
      <point x="1229" y="843"/>
      <point x="1223" y="705"/>
      <point x="1223" y="612" type="curve" smooth="yes"/>
      <point x="1223" y="0" type="line"/>
      <point x="1573" y="0" type="line"/>
      <point x="1573" y="1462" type="line"/>
      <point x="1085" y="1462" type="line"/>
      <point x="502" y="434" type="line"/>
      <point x="494" y="434" type="line"/>
      <point x="505" y="634"/>
      <point x="510" y="767"/>
      <point x="510" y="834" type="curve" smooth="yes"/>
      <point x="510" y="1462" type="line"/>
      <point x="158" y="1462" type="line"/>
    </contour>
    <contour>
      <point x="1711" y="0" type="move" name="bottomright"/>
    </contour>
    <contour>
      <point x="866" y="1462" type="move" name="top"/>
    </contour>
  </outline>
</glyph>
<glyph name="El-cy" format="1">
  <advance width="1561"/>
  <unicode hex="041B"/>
  <note>
    afii10029
  </note>
  <outline>
    <contour>
      <point x="180" y="-20" type="curve" smooth="yes"/>
      <point x="255" y="-20"/>
      <point x="318" y="-9"/>
      <point x="371" y="12" type="curve" smooth="yes"/>
      <point x="476" y="54"/>
      <point x="545" y="131"/>
      <point x="592" y="270" type="curve" smooth="yes"/>
      <point x="639" y="409"/>
      <point x="696" y="807"/>
      <point x="727" y="1139" type="curve"/>
      <point x="1006" y="1139" type="line"/>
      <point x="1006" y="0" type="line"/>
      <point x="1403" y="0" type="line"/>
      <point x="1403" y="1462" type="line"/>
      <point x="393" y="1462" type="line"/>
      <point x="368" y="1240"/>
      <point x="338" y="1014"/>
      <point x="312" y="830" type="curve" smooth="yes"/>
      <point x="289" y="671"/>
      <point x="267" y="544"/>
      <point x="253" y="479" type="curve" smooth="yes"/>
      <point x="222" y="339"/>
      <point x="192" y="287"/>
      <point x="123" y="287" type="curve" smooth="yes"/>
      <point x="98" y="287"/>
      <point x="65" y="294"/>
      <point x="25" y="307" type="curve"/>
      <point x="25" y="2" type="line"/>
      <point x="72" y="-13"/>
      <point x="123" y="-20"/>
    </contour>
    <contour>
      <point x="1329.36774" y="0" type="move" name="cyrillicbighook"/>
    </contour>
  </outline>
</glyph>
<glyph name="che-cy" format="1">
  <advance width="1374"/>
  <unicode hex="0447"/>
  <note>
    afii10089
  </note>
  <outline>
    <contour>
      <point x="848" y="0" type="line"/>
      <point x="1239" y="0" type="line"/>
      <point x="1239" y="1133" type="line"/>
      <point x="848" y="1133" type="line"/>
      <point x="848" y="668" type="line"/>
      <point x="748" y="635"/>
      <point x="660" y="618"/>
      <point x="584" y="618" type="curve" smooth="yes"/>
      <point x="513" y="618"/>
      <point x="477" y="657"/>
      <point x="477" y="735" type="curve" smooth="yes"/>
      <point x="477" y="1133" type="line"/>
      <point x="86" y="1133" type="line"/>
      <point x="86" y="715" type="line" smooth="yes"/>
      <point x="86" y="451"/>
      <point x="214" y="328"/>
      <point x="489" y="328" type="curve" smooth="yes"/>
      <point x="599" y="328"/>
      <point x="719" y="356"/>
      <point x="848" y="412" type="curve"/>
    </contour>
    <contour>
      <point x="1354" y="0" type="move" name="bottomright"/>
    </contour>
    <contour>
      <point x="687" y="1133" type="move" name="top"/>
    </contour>
  </outline>
</glyph>
<glyph name="yeru-cy" format="1">
  <advance width="1854"/>
  <unicode hex="044B"/>
  <note>
    afii10093
  </note>
  <outline>
    <component base="softsign-cy"/>
    <component base="idotless" xOffset="1188"/>
    <contour>
      <point x="887" y="1133" type="move" name="top"/>
    </contour>
  </outline>
</glyph>
<glyph name="Yuslittle-cy" format="1">
  <advance width="1733"/>
  <unicode hex="0466"/>
  <note>
    uni0466
  </note>
  <outline>
    <contour>
      <point x="-10" y="0" type="line"/>
      <point x="397" y="0" type="line"/>
      <point x="610" y="555" type="line"/>
      <point x="692" y="555" type="line"/>
      <point x="692" y="0" type="line"/>
      <point x="1040" y="0" type="line"/>
      <point x="1040" y="555" type="line"/>
      <point x="1122" y="555" type="line"/>
      <point x="1337" y="0" type="line"/>
      <point x="1743" y="0" type="line"/>
      <point x="1096" y="1462" type="line"/>
      <point x="631" y="1462" type="line"/>
    </contour>
    <contour>
      <point x="725" y="846" type="line"/>
      <point x="753" y="918"/>
      <point x="782" y="990"/>
      <point x="810" y="1062" type="curve"/>
      <point x="829" y="1110"/>
      <point x="847" y="1158"/>
      <point x="866" y="1206" type="curve"/>
      <point x="883" y="1162"/>
      <point x="901" y="1117"/>
      <point x="918" y="1073" type="curve"/>
      <point x="947" y="997"/>
      <point x="977" y="922"/>
      <point x="1006" y="846" type="curve"/>
    </contour>
  </outline>
</glyph>
<glyph name="fita-cy" format="1">
  <advance width="1305"/>
  <unicode hex="0473"/>
  <note>
    afii10195
  </note>
  <outline>
    <contour>
      <point x="649" y="-20" type="curve" smooth="yes"/>
      <point x="1008" y="-20"/>
      <point x="1217" y="198"/>
      <point x="1217" y="569" type="curve" smooth="yes"/>
      <point x="1217" y="687"/>
      <point x="1195" y="791"/>
      <point x="1148" y="879" type="curve" smooth="yes"/>
      <point x="1054" y="1055"/>
      <point x="878" y="1153"/>
      <point x="655" y="1153" type="curve" smooth="yes"/>
      <point x="295" y="1153"/>
      <point x="86" y="938"/>
      <point x="86" y="569" type="curve" smooth="yes"/>
      <point x="86" y="407"/>
      <point x="130" y="273"/>
      <point x="209" y="173" type="curve" smooth="yes"/>
      <point x="307" y="50"/>
      <point x="459" y="-20"/>
    </contour>
    <contour>
      <point x="653" y="254" type="curve" smooth="yes"/>
      <point x="538" y="254"/>
      <point x="481" y="322"/>
      <point x="461" y="451" type="curve"/>
      <point x="842" y="451" type="line"/>
      <point x="823" y="322"/>
      <point x="766" y="254"/>
    </contour>
    <contour>
      <point x="461" y="672" type="line"/>
      <point x="477" y="810"/>
      <point x="540" y="879"/>
      <point x="651" y="879" type="curve" smooth="yes"/>
      <point x="770" y="879"/>
      <point x="825" y="807"/>
      <point x="844" y="672" type="curve"/>
    </contour>
  </outline>
</glyph>
<glyph name="uni047F" format="1">
  <advance width="1817"/>
  <unicode hex="047F"/>
  <note>
    uni047F
  </note>
  <outline>
    <contour>
      <point x="551" y="1190" type="line"/>
      <point x="621" y="1190" type="line"/>
      <point x="670" y="1292" type="line"/>
      <point x="803" y="1292" type="line"/>
      <point x="852" y="1190" type="line"/>
      <point x="922" y="1190" type="line"/>
      <point x="971" y="1292" type="line"/>
      <point x="1104" y="1292" type="line"/>
      <point x="1153" y="1190" type="line"/>
      <point x="1223" y="1190" type="line"/>
      <point x="1305" y="1362" type="line"/>
      <point x="1305" y="1489" type="line"/>
      <point x="471" y="1489" type="line"/>
      <point x="471" y="1362" type="line"/>
    </contour>
    <component base="omega-cy"/>
  </outline>
</glyph>
<glyph name="palatalizationcomb-cy" format="1">
  <advance width="1149"/>
  <unicode hex="0484"/>
  <note>
    uni0484
  </note>
  <outline>
    <contour>
      <point x="825" y="1231" type="line"/>
      <point x="1044" y="1231" type="line"/>
      <point x="1044" y="1251"/>
      <point x="1044" y="1272"/>
      <point x="1044" y="1292" type="curve" smooth="yes"/>
      <point x="1044" y="1507"/>
      <point x="946" y="1595"/>
      <point x="762" y="1595" type="curve" smooth="yes"/>
      <point x="671" y="1595"/>
      <point x="592" y="1566"/>
      <point x="509" y="1534" type="curve" smooth="yes"/>
      <point x="390" y="1488"/>
      <point x="316" y="1473"/>
      <point x="219" y="1473" type="curve"/>
      <point x="219" y="1231" type="line"/>
      <point x="236" y="1231" type="line" smooth="yes"/>
      <point x="320" y="1231"/>
      <point x="393" y="1238"/>
      <point x="456" y="1251" type="curve" smooth="yes"/>
      <point x="518" y="1264"/>
      <point x="563" y="1281"/>
      <point x="629" y="1310" type="curve" smooth="yes"/>
      <point x="671" y="1328"/>
      <point x="704" y="1337"/>
      <point x="729" y="1337" type="curve" smooth="yes"/>
      <point x="791" y="1337"/>
      <point x="825" y="1298"/>
      <point x="825" y="1235" type="curve" smooth="yes"/>
    </contour>
  </outline>
</glyph>
<glyph name="dasiapneumatacomb-cy" format="1">
  <advance width="1104"/>
  <unicode hex="0485"/>
  <note>
    uni0485
  </note>
  <outline>
    <contour>
      <point x="760" y="1206" type="curve"/>
      <point x="760" y="1309" type="line"/>
      <point x="693" y="1312"/>
      <point x="645" y="1346"/>
      <point x="645" y="1391" type="curve" smooth="yes"/>
      <point x="645" y="1423"/>
      <point x="664" y="1439"/>
      <point x="712" y="1450" type="curve" smooth="yes"/>
      <point x="756" y="1460"/>
      <point x="778" y="1484"/>
      <point x="778" y="1522" type="curve" smooth="yes"/>
      <point x="778" y="1598"/>
      <point x="708" y="1647"/>
      <point x="592" y="1647" type="curve" smooth="yes"/>
      <point x="471" y="1647"/>
      <point x="406" y="1571"/>
      <point x="406" y="1462" type="curve" smooth="yes"/>
      <point x="406" y="1302"/>
      <point x="539" y="1206"/>
    </contour>
  </outline>
</glyph>
<glyph name="psilipneumatacomb-cy" format="1">
  <advance width="1102"/>
  <unicode hex="0486"/>
  <note>
    uni0486
  </note>
  <outline>
    <contour>
      <point x="406" y="1206" type="line"/>
      <point x="626" y="1206"/>
      <point x="760" y="1302"/>
      <point x="760" y="1463" type="curve" smooth="yes"/>
      <point x="760" y="1578"/>
      <point x="691" y="1647"/>
      <point x="567" y="1647" type="curve" smooth="yes"/>
      <point x="462" y="1647"/>
      <point x="387" y="1598"/>
      <point x="387" y="1523" type="curve" smooth="yes"/>
      <point x="387" y="1473"/>
      <point x="420" y="1459"/>
      <point x="454" y="1450" type="curve" smooth="yes"/>
      <point x="489" y="1441"/>
      <point x="520" y="1430"/>
      <point x="520" y="1393" type="curve" smooth="yes"/>
      <point x="520" y="1353"/>
      <point x="483" y="1313"/>
      <point x="406" y="1309" type="curve"/>
    </contour>
  </outline>
</glyph>
<glyph name="Semisoftsign-cy" format="1">
  <advance width="1368"/>
  <unicode hex="048C"/>
  <note>
    uni048C
  </note>
  <outline>
    <contour>
      <point x="209" y="0" type="line"/>
      <point x="682" y="0" type="line" smooth="yes"/>
      <point x="1074" y="0"/>
      <point x="1294" y="166"/>
      <point x="1294" y="465" type="curve" smooth="yes"/>
      <point x="1294" y="750"/>
      <point x="1076" y="901"/>
      <point x="668" y="901" type="curve" smooth="yes"/>
      <point x="606" y="901" type="line"/>
      <point x="606" y="1038" type="line"/>
      <point x="913" y="1038" type="line"/>
      <point x="913" y="1294" type="line"/>
      <point x="606" y="1294" type="line"/>
      <point x="606" y="1462" type="line"/>
      <point x="209" y="1462" type="line"/>
      <point x="209" y="1294" type="line"/>
      <point x="-8" y="1294" type="line"/>
      <point x="-8" y="1038" type="line"/>
      <point x="209" y="1038" type="line"/>
    </contour>
    <contour>
      <point x="606" y="303" type="line"/>
      <point x="606" y="598" type="line"/>
      <point x="664" y="598" type="line" smooth="yes"/>
      <point x="819" y="598"/>
      <point x="897" y="550"/>
      <point x="897" y="455" type="curve" smooth="yes"/>
      <point x="897" y="354"/>
      <point x="820" y="303"/>
      <point x="666" y="303" type="curve" smooth="yes"/>
    </contour>
  </outline>
</glyph>
<glyph name="Ertick-cy" format="1">
  <advance width="1376"/>
  <unicode hex="048E"/>
  <note>
    uni048E
  </note>
  <outline>
    <contour>
      <point x="1018" y="319" type="line"/>
      <point x="1198" y="446" type="line"/>
      <point x="776" y="1057" type="line"/>
      <point x="596" y="928" type="line"/>
    </contour>
    <component base="P"/>
  </outline>
</glyph>
<glyph name="Gheupturn-cy" format="1">
  <advance width="1243"/>
  <unicode hex="0490"/>
  <note>
    afii10050
  </note>
  <outline>
    <contour>
      <point x="158" y="1462" type="line"/>
      <point x="158" y="0" type="line"/>
      <point x="555" y="0" type="line"/>
      <point x="555" y="1143" type="line"/>
      <point x="1206" y="1143" type="line"/>
      <point x="1206" y="1776" type="line"/>
      <point x="860" y="1776" type="line"/>
      <point x="860" y="1462" type="line"/>
    </contour>
  </outline>
</glyph>
<glyph name="Kadescender-cy" format="1">
  <advance width="1599"/>
  <unicode hex="049A"/>
  <note>
    uni049A
  </note>
  <outline>
    <contour>
      <point x="1178" y="-455" type="line"/>
      <point x="1563" y="-455" type="line"/>
      <point x="1563" y="324" type="line"/>
      <point x="1232" y="324" type="line"/>
      <point x="956" y="764" type="line"/>
      <point x="1407" y="1462" type="line"/>
      <point x="973" y="1462" type="line"/>
      <point x="555" y="754" type="line"/>
      <point x="555" y="1462" type="line"/>
      <point x="158" y="1462" type="line"/>
      <point x="158" y="0" type="line"/>
      <point x="555" y="0" type="line"/>
      <point x="555" y="741" type="line"/>
      <point x="989" y="0" type="line"/>
      <point x="1178" y="0" type="line"/>
    </contour>
  </outline>
</glyph>
<glyph name="Kastroke-cy" format="1">
  <advance width="1407"/>
  <unicode hex="049E"/>
  <note>
    uni049E
  </note>
  <outline>
    <contour>
      <point x="158" y="0" type="line"/>
      <point x="555" y="0" type="line"/>
      <point x="555" y="489" type="line"/>
      <point x="672" y="559" type="line"/>
      <point x="961" y="0" type="line"/>
      <point x="1407" y="0" type="line"/>
      <point x="954" y="807" type="line"/>
      <point x="1415" y="1462" type="line"/>
      <point x="983" y="1462" type="line"/>
      <point x="883" y="1313"/>
      <point x="780" y="1162"/>
      <point x="676" y="1014" type="curve" smooth="yes"/>
      <point x="616" y="929"/>
      <point x="575" y="866"/>
      <point x="555" y="827" type="curve"/>
      <point x="555" y="1063" type="line"/>
      <point x="698" y="1063" type="line"/>
      <point x="698" y="1319" type="line"/>
      <point x="555" y="1319" type="line"/>
      <point x="555" y="1462" type="line"/>
      <point x="158" y="1462" type="line"/>
      <point x="158" y="1319" type="line"/>
      <point x="14" y="1319" type="line"/>
      <point x="14" y="1063" type="line"/>
      <point x="158" y="1063" type="line"/>
    </contour>
  </outline>
</glyph>
<glyph name="kabashkir-cy" format="1">
  <advance width="1657"/>
  <unicode hex="04A1"/>
  <note>
    uni04A1
  </note>
  <outline>
    <contour>
      <point x="408" y="0" type="line"/>
      <point x="799" y="0" type="line"/>
      <point x="799" y="575" type="line"/>
      <point x="1219" y="0" type="line"/>
      <point x="1665" y="0" type="line"/>
      <point x="1208" y="590" type="line"/>
      <point x="1632" y="1133" type="line"/>
      <point x="1200" y="1133" type="line"/>
      <point x="799" y="584" type="line"/>
      <point x="799" y="1133" type="line"/>
      <point x="49" y="1133" type="line"/>
      <point x="49" y="842" type="line"/>
      <point x="408" y="842" type="line"/>
    </contour>
  </outline>
</glyph>
<glyph name="Tetse-cy" format="1">
  <advance width="1929"/>
  <unicode hex="04B4"/>
  <note>
    uni04B4
  </note>
  <outline>
    <contour>
      <point x="1507" y="-455" type="line"/>
      <point x="1892" y="-455" type="line"/>
      <point x="1892" y="324" type="line"/>
      <point x="1585" y="324" type="line"/>
      <point x="1585" y="1462" type="line"/>
      <point x="1188" y="1462" type="line"/>
      <point x="1188" y="324" type="line"/>
      <point x="770" y="324" type="line"/>
      <point x="770" y="1139" type="line"/>
      <point x="1069" y="1139" type="line"/>
      <point x="1069" y="1462" type="line"/>
      <point x="51" y="1462" type="line"/>
      <point x="51" y="1139" type="line"/>
      <point x="371" y="1139" type="line"/>
      <point x="371" y="0" type="line"/>
      <point x="1507" y="0" type="line"/>
    </contour>
  </outline>
</glyph>
<glyph name="Chedescenderabkhasian-cy" format="1">
  <advance width="1948"/>
  <unicode hex="04BE"/>
  <note>
    uni04BE
  </note>
  <outline>
    <contour>
      <point x="952" y="-455" type="line"/>
      <point x="1337" y="-455" type="line"/>
      <point x="1337" y="8" type="line"/>
      <point x="952" y="16" type="line"/>
    </contour>
    <component base="Cheabkhasian-cy"/>
  </outline>
</glyph>
<glyph name="eltail-cy" format="1">
  <advance width="1542"/>
  <unicode hex="04C6"/>
  <note>
    uni04C6
  </note>
  <outline>
    <contour>
      <point x="1010" y="-416" type="line"/>
      <point x="1374" y="-416" type="line"/>
      <point x="1530" y="272" type="line"/>
      <point x="1272" y="272" type="line"/>
      <point x="1272" y="1133" type="line"/>
      <point x="299" y="1133" type="line"/>
      <point x="288" y="978"/>
      <point x="277" y="847"/>
      <point x="266" y="740" type="curve" smooth="yes"/>
      <point x="242" y="527"/>
      <point x="214" y="392"/>
      <point x="177" y="330" type="curve" smooth="yes"/>
      <point x="158" y="299"/>
      <point x="134" y="283"/>
      <point x="104" y="283" type="curve" smooth="yes"/>
      <point x="67" y="283"/>
      <point x="38" y="289"/>
      <point x="16" y="301" type="curve"/>
      <point x="16" y="10" type="line"/>
      <point x="65" y="-10"/>
      <point x="124" y="-20"/>
      <point x="193" y="-20" type="curve" smooth="yes"/>
      <point x="392" y="-20"/>
      <point x="501" y="77"/>
      <point x="568" y="306" type="curve" smooth="yes"/>
      <point x="601" y="420"/>
      <point x="629" y="599"/>
      <point x="651" y="842" type="curve"/>
      <point x="881" y="842" type="line"/>
      <point x="881" y="0" type="line"/>
      <point x="1155" y="0" type="line"/>
    </contour>
  </outline>
</glyph>
<glyph name="hastroke-cy" format="1">
  <advance width="1290"/>
  <unicode hex="04FF"/>
  <note>
    uni04FF
  </note>
  <outline>
    <contour>
      <point x="10" y="0" type="line"/>
      <point x="455" y="0" type="line"/>
      <point x="645" y="344" type="line"/>
      <point x="836" y="0" type="line"/>
      <point x="1280" y="0" type="line"/>
      <point x="991" y="420" type="line"/>
      <point x="1204" y="420" type="line"/>
      <point x="1204" y="711" type="line"/>
      <point x="975" y="711" type="line"/>
      <point x="1266" y="1133" type="line"/>
      <point x="821" y="1133" type="line"/>
      <point x="645" y="815" type="line"/>
      <point x="473" y="1133" type="line"/>
      <point x="29" y="1133" type="line"/>
      <point x="311" y="711" type="line"/>
      <point x="80" y="711" type="line"/>
      <point x="80" y="420" type="line"/>
      <point x="295" y="420" type="line"/>
    </contour>
  </outline>
</glyph>
<glyph name="Komilje-cy" format="1">
  <advance width="2138"/>
  <unicode hex="0508"/>
  <note>
    uni0508
  </note>
  <outline>
    <contour>
      <point x="180" y="-20" type="curve" smooth="yes"/>
      <point x="255" y="-20"/>
      <point x="318" y="-9"/>
      <point x="371" y="12" type="curve" smooth="yes"/>
      <point x="476" y="54"/>
      <point x="545" y="131"/>
      <point x="592" y="270" type="curve" smooth="yes"/>
      <point x="637" y="404"/>
      <point x="699" y="779"/>
      <point x="724" y="1104" type="curve" smooth="yes"/>
      <point x="725" y="1116"/>
      <point x="726" y="1128"/>
      <point x="727" y="1139" type="curve"/>
      <point x="965" y="1139" type="line"/>
      <point x="965" y="436" type="line" smooth="yes"/>
      <point x="965" y="111"/>
      <point x="1118" y="-20"/>
      <point x="1487" y="-20" type="curve" smooth="yes"/>
      <point x="1850" y="-20"/>
      <point x="2007" y="127"/>
      <point x="2007" y="459" type="curve" smooth="yes"/>
      <point x="2007" y="848" type="line"/>
      <point x="1610" y="848" type="line"/>
      <point x="1610" y="477" type="line" smooth="yes"/>
      <point x="1610" y="356"/>
      <point x="1580" y="305"/>
      <point x="1487" y="305" type="curve" smooth="yes"/>
      <point x="1390" y="305"/>
      <point x="1362" y="340"/>
      <point x="1362" y="481" type="curve" smooth="yes"/>
      <point x="1362" y="1462" type="line"/>
      <point x="393" y="1462" type="line"/>
      <point x="366" y="1221"/>
      <point x="334" y="976"/>
      <point x="305" y="786" type="curve" smooth="yes"/>
      <point x="285" y="647"/>
      <point x="266" y="538"/>
      <point x="253" y="479" type="curve" smooth="yes"/>
      <point x="222" y="339"/>
      <point x="192" y="287"/>
      <point x="123" y="287" type="curve" smooth="yes"/>
      <point x="98" y="287"/>
      <point x="65" y="294"/>
      <point x="25" y="307" type="curve"/>
      <point x="25" y="2" type="line"/>
      <point x="72" y="-13"/>
      <point x="123" y="-20"/>
    </contour>
  </outline>
</glyph>
<glyph name="Kominje-cy" format="1">
  <advance width="2146"/>
  <unicode hex="050A"/>
  <note>
    uni050A
  </note>
  <outline>
    <contour>
      <point x="1495" y="-20" type="curve" smooth="yes"/>
      <point x="1858" y="-20"/>
      <point x="2015" y="124"/>
      <point x="2015" y="459" type="curve" smooth="yes"/>
      <point x="2015" y="848" type="line"/>
      <point x="1618" y="848" type="line"/>
      <point x="1618" y="477" type="line" smooth="yes"/>
      <point x="1618" y="418"/>
      <point x="1611" y="376"/>
      <point x="1593" y="348" type="curve" smooth="yes"/>
      <point x="1574" y="318"/>
      <point x="1543" y="305"/>
      <point x="1495" y="305" type="curve" smooth="yes"/>
      <point x="1398" y="305"/>
      <point x="1370" y="340"/>
      <point x="1370" y="481" type="curve" smooth="yes"/>
      <point x="1370" y="1462" type="line"/>
      <point x="973" y="1462" type="line"/>
      <point x="973" y="920" type="line"/>
      <point x="555" y="920" type="line"/>
      <point x="555" y="1462" type="line"/>
      <point x="158" y="1462" type="line"/>
      <point x="158" y="0" type="line"/>
      <point x="555" y="0" type="line"/>
      <point x="555" y="596" type="line"/>
      <point x="973" y="596" type="line"/>
      <point x="973" y="436" type="line" smooth="yes"/>
      <point x="973" y="111"/>
      <point x="1126" y="-20"/>
    </contour>
  </outline>
</glyph>
<glyph name="sheva-hb" format="1">
  <advance width="0"/>
  <unicode hex="05B0"/>
  <note>
    afii57799
  </note>
  <outline>
    <contour>
      <point x="631" y="-274" type="curve" smooth="yes"/>
      <point x="689" y="-274"/>
      <point x="724" y="-241"/>
      <point x="724" y="-188" type="curve" smooth="yes"/>
      <point x="724" y="-135"/>
      <point x="689" y="-101"/>
      <point x="631" y="-101" type="curve" smooth="yes"/>
      <point x="573" y="-101"/>
      <point x="537" y="-135"/>
      <point x="537" y="-188" type="curve" smooth="yes"/>
      <point x="537" y="-241"/>
      <point x="573" y="-274"/>
    </contour>
    <contour>
      <point x="631" y="-515" type="curve" smooth="yes"/>
      <point x="689" y="-515"/>
      <point x="724" y="-481"/>
      <point x="724" y="-428" type="curve" smooth="yes"/>
      <point x="724" y="-376"/>
      <point x="689" y="-342"/>
      <point x="631" y="-342" type="curve" smooth="yes"/>
      <point x="573" y="-342"/>
      <point x="537" y="-376"/>
      <point x="537" y="-429" type="curve" smooth="yes"/>
      <point x="537" y="-482"/>
      <point x="573" y="-515"/>
    </contour>
    <contour>
      <point x="631" y="-81" type="move" name="_bottom"/>
    </contour>
  </outline>
</glyph>
<glyph name="hatafsegol-hb" format="1">
  <advance width="0"/>
  <unicode hex="05B1"/>
  <note>
    afii57801
  </note>
  <outline>
    <contour>
      <point x="378" y="-289" type="curve" smooth="yes"/>
      <point x="435" y="-289"/>
      <point x="472" y="-256"/>
      <point x="472" y="-203" type="curve" smooth="yes"/>
      <point x="472" y="-150"/>
      <point x="435" y="-116"/>
      <point x="378" y="-116" type="curve" smooth="yes"/>
      <point x="322" y="-116"/>
      <point x="285" y="-147"/>
      <point x="285" y="-203" type="curve" smooth="yes"/>
      <point x="285" y="-256"/>
      <point x="321" y="-289"/>
    </contour>
    <contour>
      <point x="674" y="-289" type="curve" smooth="yes"/>
      <point x="733" y="-289"/>
      <point x="770" y="-256"/>
      <point x="770" y="-203" type="curve" smooth="yes"/>
      <point x="770" y="-151"/>
      <point x="733" y="-116"/>
      <point x="675" y="-116" type="curve" smooth="yes"/>
      <point x="617" y="-116"/>
      <point x="581" y="-148"/>
      <point x="581" y="-203" type="curve" smooth="yes"/>
      <point x="581" y="-258"/>
      <point x="615" y="-289"/>
    </contour>
    <contour>
      <point x="530" y="-530" type="curve" smooth="yes"/>
      <point x="588" y="-530"/>
      <point x="623" y="-496"/>
      <point x="623" y="-443" type="curve" smooth="yes"/>
      <point x="623" y="-391"/>
      <point x="587" y="-357"/>
      <point x="530" y="-357" type="curve" smooth="yes"/>
      <point x="477" y="-357"/>
      <point x="437" y="-385"/>
      <point x="437" y="-443" type="curve" smooth="yes"/>
      <point x="437" y="-497"/>
      <point x="472" y="-530"/>
    </contour>
    <contour>
      <point x="941" y="-530" type="curve" smooth="yes"/>
      <point x="999" y="-530"/>
      <point x="1034" y="-496"/>
      <point x="1034" y="-443" type="curve" smooth="yes"/>
      <point x="1034" y="-391"/>
      <point x="999" y="-357"/>
      <point x="941" y="-357" type="curve" smooth="yes"/>
      <point x="883" y="-357"/>
      <point x="847" y="-391"/>
      <point x="847" y="-444" type="curve" smooth="yes"/>
      <point x="847" y="-497"/>
      <point x="883" y="-530"/>
    </contour>
    <contour>
      <point x="941" y="-289" type="curve" smooth="yes"/>
      <point x="999" y="-289"/>
      <point x="1034" y="-256"/>
      <point x="1034" y="-203" type="curve" smooth="yes"/>
      <point x="1034" y="-150"/>
      <point x="999" y="-116"/>
      <point x="941" y="-116" type="curve" smooth="yes"/>
      <point x="883" y="-116"/>
      <point x="847" y="-150"/>
      <point x="847" y="-203" type="curve" smooth="yes"/>
      <point x="847" y="-256"/>
      <point x="883" y="-289"/>
    </contour>
    <contour>
      <point x="660" y="-96" type="move" name="_bottom"/>
    </contour>
  </outline>
</glyph>
<glyph name="hatafqamats-hb" format="1">
  <advance width="0"/>
  <unicode hex="05B3"/>
  <note>
    afii57802
  </note>
  <outline>
    <contour>
      <point x="-193" y="-461" type="line"/>
      <point x="-82" y="-461" type="line"/>
      <point x="-82" y="-259" type="line"/>
      <point x="46" y="-259" type="line"/>
      <point x="46" y="-142" type="line"/>
      <point x="-321" y="-142" type="line"/>
      <point x="-321" y="-259" type="line"/>
      <point x="-193" y="-259" type="line"/>
    </contour>
    <contour>
      <point x="228" y="-530" type="curve" smooth="yes"/>
      <point x="286" y="-530"/>
      <point x="321" y="-496"/>
      <point x="321" y="-443" type="curve" smooth="yes"/>
      <point x="321" y="-391"/>
      <point x="286" y="-357"/>
      <point x="228" y="-357" type="curve" smooth="yes"/>
      <point x="170" y="-357"/>
      <point x="134" y="-391"/>
      <point x="134" y="-444" type="curve" smooth="yes"/>
      <point x="134" y="-497"/>
      <point x="170" y="-530"/>
    </contour>
    <contour>
      <point x="228" y="-289" type="curve" smooth="yes"/>
      <point x="286" y="-289"/>
      <point x="321" y="-256"/>
      <point x="321" y="-203" type="curve" smooth="yes"/>
      <point x="321" y="-150"/>
      <point x="286" y="-116"/>
      <point x="228" y="-116" type="curve" smooth="yes"/>
      <point x="170" y="-116"/>
      <point x="134" y="-150"/>
      <point x="134" y="-203" type="curve" smooth="yes"/>
      <point x="134" y="-256"/>
      <point x="170" y="-289"/>
    </contour>
    <contour>
      <point x="0" y="-96" type="move" name="_bottom"/>
    </contour>
  </outline>
</glyph>
<glyph name="hiriq-hb" format="1">
  <advance width="0"/>
  <unicode hex="05B4"/>
  <note>
    afii57793
  </note>
  <outline>
    <contour>
      <point x="627" y="-284" type="curve" smooth="yes"/>
      <point x="686" y="-284"/>
      <point x="723" y="-250"/>
      <point x="723" y="-198" type="curve" smooth="yes"/>
      <point x="723" y="-146"/>
      <point x="686" y="-111"/>
      <point x="628" y="-111" type="curve" smooth="yes"/>
      <point x="570" y="-111"/>
      <point x="534" y="-143"/>
      <point x="534" y="-198" type="curve" smooth="yes"/>
      <point x="534" y="-253"/>
      <point x="568" y="-284"/>
    </contour>
    <contour>
      <point x="629" y="-91" type="move" name="_bottom"/>
    </contour>
  </outline>
</glyph>
<glyph name="tsere-hb" format="1">
  <advance width="0"/>
  <unicode hex="05B5"/>
  <note>
    afii57794
  </note>
  <outline>
    <contour>
      <point x="776" y="-265" type="curve" smooth="yes"/>
      <point x="835" y="-265"/>
      <point x="872" y="-231"/>
      <point x="872" y="-179" type="curve" smooth="yes"/>
      <point x="872" y="-127"/>
      <point x="835" y="-92"/>
      <point x="776" y="-92" type="curve" smooth="yes"/>
      <point x="717" y="-92"/>
      <point x="682" y="-124"/>
      <point x="682" y="-179" type="curve" smooth="yes"/>
      <point x="682" y="-234"/>
      <point x="717" y="-265"/>
    </contour>
    <contour>
      <point x="480" y="-265" type="curve" smooth="yes"/>
      <point x="538" y="-265"/>
      <point x="573" y="-231"/>
      <point x="573" y="-178" type="curve" smooth="yes"/>
      <point x="573" y="-126"/>
      <point x="537" y="-92"/>
      <point x="480" y="-92" type="curve" smooth="yes"/>
      <point x="427" y="-92"/>
      <point x="387" y="-120"/>
      <point x="387" y="-178" type="curve" smooth="yes"/>
      <point x="387" y="-232"/>
      <point x="422" y="-265"/>
    </contour>
    <contour>
      <point x="630" y="-72" type="move" name="_bottom"/>
    </contour>
  </outline>
</glyph>
<glyph name="segol-hb" format="1">
  <advance width="0"/>
  <unicode hex="05B6"/>
  <note>
    afii57795
  </note>
  <outline>
    <contour>
      <point x="632" y="-530" type="curve" smooth="yes"/>
      <point x="690" y="-530"/>
      <point x="725" y="-496"/>
      <point x="725" y="-443" type="curve" smooth="yes"/>
      <point x="725" y="-391"/>
      <point x="690" y="-357"/>
      <point x="632" y="-357" type="curve" smooth="yes"/>
      <point x="574" y="-357"/>
      <point x="538" y="-391"/>
      <point x="538" y="-444" type="curve" smooth="yes"/>
      <point x="538" y="-497"/>
      <point x="574" y="-530"/>
    </contour>
    <contour>
      <point x="776" y="-289" type="curve" smooth="yes"/>
      <point x="835" y="-289"/>
      <point x="872" y="-256"/>
      <point x="872" y="-203" type="curve" smooth="yes"/>
      <point x="872" y="-151"/>
      <point x="835" y="-116"/>
      <point x="776" y="-116" type="curve" smooth="yes"/>
      <point x="717" y="-116"/>
      <point x="682" y="-148"/>
      <point x="682" y="-203" type="curve" smooth="yes"/>
      <point x="682" y="-258"/>
      <point x="717" y="-289"/>
    </contour>
    <contour>
      <point x="480" y="-289" type="curve" smooth="yes"/>
      <point x="538" y="-289"/>
      <point x="573" y="-256"/>
      <point x="573" y="-203" type="curve" smooth="yes"/>
      <point x="573" y="-150"/>
      <point x="537" y="-116"/>
      <point x="480" y="-116" type="curve" smooth="yes"/>
      <point x="427" y="-116"/>
      <point x="387" y="-144"/>
      <point x="387" y="-202" type="curve" smooth="yes"/>
      <point x="387" y="-256"/>
      <point x="422" y="-289"/>
    </contour>
    <contour>
      <point x="630" y="-96" type="move" name="_bottom"/>
    </contour>
  </outline>
</glyph>
<glyph name="patah-hb" format="1">
  <advance width="0"/>
  <unicode hex="05B7"/>
  <note>
    afii57798
  </note>
  <outline>
    <contour>
      <point x="432" y="-234" type="line"/>
      <point x="825" y="-234" type="line"/>
      <point x="825" y="-118" type="line"/>
      <point x="432" y="-118" type="line"/>
    </contour>
    <contour>
      <point x="628" y="9" type="move" name="_bottom"/>
    </contour>
  </outline>
</glyph>
<glyph name="qamats-hb" format="1">
  <advance width="0"/>
  <unicode hex="05B8"/>
  <note>
    afii57797
  </note>
  <outline>
    <contour>
      <point x="573" y="-457" type="line"/>
      <point x="684" y="-457" type="line"/>
      <point x="684" y="-255" type="line"/>
      <point x="820" y="-255" type="line"/>
      <point x="820" y="-138" type="line"/>
      <point x="438" y="-138" type="line"/>
      <point x="438" y="-255" type="line"/>
      <point x="573" y="-255" type="line"/>
    </contour>
    <contour>
      <point x="628" y="-12" type="move" name="_bottom"/>
    </contour>
  </outline>
</glyph>
<glyph name="qubuts-hb" format="1">
  <advance width="0"/>
  <unicode hex="05BB"/>
  <note>
    afii57796
  </note>
  <outline>
    <contour>
      <point x="487" y="-300" type="curve" smooth="yes"/>
      <point x="545" y="-300"/>
      <point x="580" y="-267"/>
      <point x="580" y="-214" type="curve" smooth="yes"/>
      <point x="580" y="-161"/>
      <point x="544" y="-127"/>
      <point x="487" y="-127" type="curve" smooth="yes"/>
      <point x="434" y="-127"/>
      <point x="394" y="-155"/>
      <point x="394" y="-213" type="curve" smooth="yes"/>
      <point x="394" y="-267"/>
      <point x="429" y="-300"/>
    </contour>
    <contour>
      <point x="669" y="-476" type="curve" smooth="yes"/>
      <point x="727" y="-476"/>
      <point x="762" y="-442"/>
      <point x="762" y="-389" type="curve" smooth="yes"/>
      <point x="762" y="-337"/>
      <point x="727" y="-303"/>
      <point x="669" y="-303" type="curve" smooth="yes"/>
      <point x="611" y="-303"/>
      <point x="575" y="-337"/>
      <point x="575" y="-390" type="curve" smooth="yes"/>
      <point x="575" y="-443"/>
      <point x="611" y="-476"/>
    </contour>
    <contour>
      <point x="853" y="-651" type="curve" smooth="yes"/>
      <point x="912" y="-651"/>
      <point x="949" y="-617"/>
      <point x="949" y="-565" type="curve" smooth="yes"/>
      <point x="949" y="-513"/>
      <point x="912" y="-478"/>
      <point x="854" y="-478" type="curve" smooth="yes"/>
      <point x="796" y="-478"/>
      <point x="760" y="-510"/>
      <point x="760" y="-565" type="curve" smooth="yes"/>
      <point x="760" y="-620"/>
      <point x="794" y="-651"/>
    </contour>
    <contour>
      <point x="672" y="-107" type="move" name="_bottom"/>
    </contour>
  </outline>
</glyph>
<glyph name="dagesh-hb" format="1">
  <advance width="0"/>
  <unicode hex="05BC"/>
  <note>
    afii57807
  </note>
  <outline>
    <contour>
      <point x="627" y="570" type="curve" smooth="yes"/>
      <point x="686" y="570"/>
      <point x="723" y="604"/>
      <point x="723" y="656" type="curve" smooth="yes"/>
      <point x="723" y="708"/>
      <point x="686" y="743"/>
      <point x="628" y="743" type="curve" smooth="yes"/>
      <point x="570" y="743"/>
      <point x="534" y="711"/>
      <point x="534" y="656" type="curve" smooth="yes"/>
      <point x="534" y="601"/>
      <point x="568" y="570"/>
    </contour>
    <contour>
      <point x="629" y="657" type="move" name="_center"/>
    </contour>
  </outline>
</glyph>
<glyph name="siluqleft-hb" format="1">
  <advance width="1256"/>
  <unicode hex="05BD"/>
  <note>
    afii57839
  </note>
  <outline>
    <contour>
      <point x="576" y="-509" type="line"/>
      <point x="679" y="-509" type="line"/>
      <point x="679" y="-157" type="line"/>
      <point x="576" y="-157" type="line"/>
    </contour>
    <contour>
      <point x="628" y="-137" type="move" name="_bottom"/>
    </contour>
  </outline>
</glyph>
<glyph name="maqaf-hb" format="1">
  <advance width="651"/>
  <unicode hex="05BE"/>
  <note>
    afii57645
  </note>
  <outline>
    <contour>
      <point x="43" y="982" type="line"/>
      <point x="608" y="982" type="line"/>
      <point x="608" y="1295" type="line"/>
      <point x="43" y="1295" type="line"/>
    </contour>
  </outline>
</glyph>
<glyph name="shindot-hb" format="1">
  <advance width="0"/>
  <unicode hex="05C1"/>
  <note>
    afii57804
  </note>
  <outline>
    <contour>
      <point x="575" y="1410" type="curve" smooth="yes"/>
      <point x="634" y="1410"/>
      <point x="671" y="1444"/>
      <point x="671" y="1496" type="curve" smooth="yes"/>
      <point x="671" y="1548"/>
      <point x="634" y="1583"/>
      <point x="576" y="1583" type="curve" smooth="yes"/>
      <point x="518" y="1583"/>
      <point x="482" y="1551"/>
      <point x="482" y="1496" type="curve" smooth="yes"/>
      <point x="482" y="1441"/>
      <point x="516" y="1410"/>
    </contour>
    <contour>
      <point x="577" y="1133" type="move" name="_topright"/>
    </contour>
  </outline>
</glyph>
<glyph name="sindot-hb" format="1">
  <advance width="0"/>
  <unicode hex="05C2"/>
  <note>
    afii57803
  </note>
  <outline>
    <contour>
      <point x="628" y="1410" type="curve" smooth="yes"/>
      <point x="687" y="1410"/>
      <point x="724" y="1444"/>
      <point x="724" y="1496" type="curve" smooth="yes"/>
      <point x="724" y="1548"/>
      <point x="687" y="1583"/>
      <point x="629" y="1583" type="curve" smooth="yes"/>
      <point x="571" y="1583"/>
      <point x="535" y="1551"/>
      <point x="535" y="1496" type="curve" smooth="yes"/>
      <point x="535" y="1441"/>
      <point x="569" y="1410"/>
    </contour>
    <contour>
      <point x="744" y="1390" type="move" name="_topleft"/>
    </contour>
  </outline>
</glyph>
<glyph name="bet-hb" format="1">
  <advance width="1196"/>
  <unicode hex="05D1"/>
  <note>
    afii57665
  </note>
  <outline>
    <contour>
      <point x="82" y="0" type="line"/>
      <point x="1168" y="0" type="line"/>
      <point x="1168" y="299" type="line"/>
      <point x="1027" y="299" type="line"/>
      <point x="1027" y="839" type="line" smooth="yes"/>
      <point x="1027" y="994"/>
      <point x="1009" y="1100"/>
      <point x="932" y="1188" type="curve" smooth="yes"/>
      <point x="899" y="1227"/>
      <point x="847" y="1259"/>
      <point x="771" y="1281" type="curve" smooth="yes"/>
      <point x="697" y="1303"/>
      <point x="600" y="1315"/>
      <point x="479" y="1315" type="curve" smooth="yes"/>
      <point x="295" y="1315"/>
      <point x="163" y="1306"/>
      <point x="82" y="1289" type="curve"/>
      <point x="82" y="992" type="line"/>
      <point x="252" y="1008"/>
      <point x="353" y="1015"/>
      <point x="442" y="1015" type="curve" smooth="yes"/>
      <point x="488" y="1015"/>
      <point x="526" y="1007"/>
      <point x="556" y="991" type="curve" smooth="yes"/>
      <point x="611" y="962"/>
      <point x="639" y="906"/>
      <point x="639" y="822" type="curve" smooth="yes"/>
      <point x="639" y="299" type="line"/>
      <point x="82" y="299" type="line"/>
    </contour>
    <contour>
      <point x="598" y="0" type="move" name="bottom"/>
    </contour>
    <contour>
      <point x="20" y="0" type="move" name="bottomleft"/>
    </contour>
    <contour>
      <point x="381" y="671" type="move" name="center"/>
    </contour>
    <contour>
      <point x="598" y="1133" type="move" name="top"/>
    </contour>
    <contour>
      <point x="20" y="1133" type="move" name="topleft"/>
    </contour>
  </outline>
</glyph>
<glyph name="yod-hb" format="1">
  <advance width="635"/>
  <unicode hex="05D9"/>
  <note>
    afii57673
  </note>
  <outline>
    <contour>
      <point x="127" y="419" type="line"/>
      <point x="300" y="419" type="line"/>
      <point x="515" y="691" type="line"/>
      <point x="515" y="1295" type="line"/>
      <point x="127" y="1295" type="line"/>
    </contour>
    <contour>
      <point x="318" y="0" type="move" name="bottom"/>
    </contour>
    <contour>
      <point x="20" y="0" type="move" name="bottomleft"/>
    </contour>
    <contour>
      <point x="-11" y="926" type="move" name="center"/>
    </contour>
    <contour>
      <point x="318" y="1133" type="move" name="top"/>
    </contour>
    <contour>
      <point x="20" y="1133" type="move" name="topleft"/>
    </contour>
  </outline>
</glyph>
<glyph name="finalkaf-hb" format="1">
  <advance width="1108"/>
  <unicode hex="05DA"/>
  <note>
    afii57674
  </note>
  <outline>
    <contour>
      <point x="590" y="-492" type="line"/>
      <point x="977" y="-492" type="line"/>
      <point x="977" y="729" type="line" smooth="yes"/>
      <point x="977" y="858"/>
      <point x="954" y="969"/>
      <point x="907" y="1062" type="curve" smooth="yes"/>
      <point x="881" y="1114"/>
      <point x="848" y="1158"/>
      <point x="808" y="1195" type="curve" smooth="yes"/>
      <point x="728" y="1267"/>
      <point x="596" y="1315"/>
      <point x="431" y="1315" type="curve" smooth="yes"/>
      <point x="350" y="1315"/>
      <point x="275" y="1314"/>
      <point x="206" y="1311" type="curve" smooth="yes"/>
      <point x="140" y="1308"/>
      <point x="79" y="1304"/>
      <point x="23" y="1299" type="curve"/>
      <point x="23" y="995" type="line"/>
      <point x="87" y="1001"/>
      <point x="141" y="1006"/>
      <point x="190" y="1009" type="curve" smooth="yes"/>
      <point x="244" y="1012"/>
      <point x="294" y="1013"/>
      <point x="347" y="1013" type="curve" smooth="yes"/>
      <point x="428" y="1013"/>
      <point x="488" y="995"/>
      <point x="526" y="959" type="curve" smooth="yes"/>
      <point x="543" y="943"/>
      <point x="557" y="922"/>
      <point x="567" y="896" type="curve" smooth="yes"/>
      <point x="586" y="844"/>
      <point x="590" y="800"/>
      <point x="590" y="731" type="curve" smooth="yes"/>
    </contour>
    <contour>
      <point x="554" y="0" type="move" name="bottom"/>
    </contour>
    <contour>
      <point x="20" y="0" type="move" name="bottomleft"/>
    </contour>
    <contour>
      <point x="281" y="673" type="move" name="center"/>
    </contour>
    <contour>
      <point x="554" y="1133" type="move" name="top"/>
    </contour>
    <contour>
      <point x="20" y="1133" type="move" name="topleft"/>
    </contour>
  </outline>
</glyph>
<glyph name="kaf-hb" format="1">
  <advance width="1104"/>
  <unicode hex="05DB"/>
  <note>
    afii57675
  </note>
  <outline>
    <contour>
      <point x="474" y="-20" type="curve" smooth="yes"/>
      <point x="563" y="-20"/>
      <point x="640" y="-9"/>
      <point x="707" y="14" type="curve" smooth="yes"/>
      <point x="839" y="58"/>
      <point x="912" y="128"/>
      <point x="960" y="233" type="curve" smooth="yes"/>
      <point x="1008" y="338"/>
      <point x="1021" y="437"/>
      <point x="1021" y="565" type="curve" smooth="yes"/>
      <point x="1021" y="729" type="line" smooth="yes"/>
      <point x="1021" y="858"/>
      <point x="998" y="969"/>
      <point x="951" y="1062" type="curve" smooth="yes"/>
      <point x="925" y="1114"/>
      <point x="892" y="1158"/>
      <point x="852" y="1195" type="curve" smooth="yes"/>
      <point x="771" y="1267"/>
      <point x="639" y="1315"/>
      <point x="474" y="1315" type="curve" smooth="yes"/>
      <point x="376" y="1315"/>
      <point x="287" y="1313"/>
      <point x="206" y="1309" type="curve" smooth="yes"/>
      <point x="156" y="1307"/>
      <point x="109" y="1303"/>
      <point x="66" y="1299" type="curve"/>
      <point x="66" y="995" type="line"/>
      <point x="82" y="997"/>
      <point x="98" y="998"/>
      <point x="114" y="1000" type="curve" smooth="yes"/>
      <point x="211" y="1009"/>
      <point x="303" y="1013"/>
      <point x="390" y="1013" type="curve" smooth="yes"/>
      <point x="469" y="1013"/>
      <point x="549" y="996"/>
      <point x="590" y="935" type="curve" smooth="yes"/>
      <point x="625" y="887"/>
      <point x="633" y="804"/>
      <point x="633" y="731" type="curve" smooth="yes"/>
      <point x="633" y="565" type="line" smooth="yes"/>
      <point x="633" y="512"/>
      <point x="628" y="465"/>
      <point x="617" y="426" type="curve" smooth="yes"/>
      <point x="606" y="390"/>
      <point x="590" y="360"/>
      <point x="567" y="338" type="curve" smooth="yes"/>
      <point x="536" y="308"/>
      <point x="494" y="292"/>
      <point x="437" y="292" type="curve" smooth="yes"/>
      <point x="293" y="292"/>
      <point x="169" y="298"/>
      <point x="66" y="310" type="curve"/>
      <point x="66" y="7" type="line"/>
      <point x="163" y="-11"/>
      <point x="299" y="-20"/>
    </contour>
    <contour>
      <point x="552" y="0" type="move" name="bottom"/>
    </contour>
    <contour>
      <point x="20" y="0" type="move" name="bottomleft"/>
    </contour>
    <contour>
      <point x="353" y="673" type="move" name="center"/>
    </contour>
    <contour>
      <point x="552" y="1133" type="move" name="top"/>
    </contour>
    <contour>
      <point x="20" y="1133" type="move" name="topleft"/>
    </contour>
  </outline>
</glyph>
<glyph name="qof-hb" format="1">
  <advance width="1388"/>
  <unicode hex="05E7"/>
  <note>
    afii57687
  </note>
  <outline>
    <contour>
      <point x="655" y="0" type="curve"/>
      <point x="1040" y="0" type="line"/>
      <point x="1040" y="61" type="line" smooth="yes"/>
      <point x="1040" y="127"/>
      <point x="1048" y="198"/>
      <point x="1065" y="275" type="curve" smooth="yes"/>
      <point x="1082" y="349"/>
      <point x="1106" y="430"/>
      <point x="1138" y="515" type="curve" smooth="yes"/>
      <point x="1348" y="1071" type="line"/>
      <point x="1348" y="1295" type="line"/>
      <point x="135" y="1295" type="line"/>
      <point x="135" y="996" type="line"/>
      <point x="922" y="996" type="line"/>
      <point x="744" y="523" type="line" smooth="yes"/>
      <point x="722" y="464"/>
      <point x="702" y="389"/>
      <point x="687" y="314" type="curve" smooth="yes"/>
      <point x="667" y="216"/>
      <point x="655" y="119"/>
      <point x="655" y="61" type="curve" smooth="yes"/>
      <point x="655" y="41"/>
      <point x="655" y="20"/>
    </contour>
    <contour>
      <point x="135" y="-492" type="line"/>
      <point x="523" y="-492" type="line"/>
      <point x="523" y="780" type="line"/>
      <point x="135" y="780" type="line"/>
    </contour>
    <contour>
      <point x="694" y="0" type="move" name="bottom"/>
    </contour>
    <contour>
      <point x="20" y="0" type="move" name="bottomleft"/>
    </contour>
    <contour>
      <point x="649" y="673" type="move" name="center"/>
    </contour>
    <contour>
      <point x="694" y="1133" type="move" name="top"/>
    </contour>
    <contour>
      <point x="20" y="1133" type="move" name="topleft"/>
    </contour>
  </outline>
</glyph>
<glyph name="tav-hb" format="1">
  <advance width="1437"/>
  <unicode hex="05EA"/>
  <note>
    afii57690
  </note>
  <outline>
    <contour>
      <point x="233" y="-19" type="curve" smooth="yes"/>
      <point x="363" y="-19"/>
      <point x="461" y="7"/>
      <point x="528" y="59" type="curve" smooth="yes"/>
      <point x="559" y="83"/>
      <point x="584" y="113"/>
      <point x="603" y="149" type="curve" smooth="yes"/>
      <point x="641" y="221"/>
      <point x="652" y="296"/>
      <point x="652" y="395" type="curve" smooth="yes"/>
      <point x="652" y="1013" type="line"/>
      <point x="665" y="1014"/>
      <point x="689" y="1014"/>
      <point x="722" y="1014" type="curve" smooth="yes"/>
      <point x="759" y="1014"/>
      <point x="791" y="1009"/>
      <point x="818" y="998" type="curve" smooth="yes"/>
      <point x="885" y="972"/>
      <point x="918" y="913"/>
      <point x="918" y="821" type="curve" smooth="yes"/>
      <point x="918" y="0" type="line"/>
      <point x="1307" y="0" type="line"/>
      <point x="1307" y="838" type="line" smooth="yes"/>
      <point x="1307" y="929"/>
      <point x="1299" y="1004"/>
      <point x="1282" y="1062" type="curve" smooth="yes"/>
      <point x="1262" y="1131"/>
      <point x="1231" y="1176"/>
      <point x="1176" y="1220" type="curve" smooth="yes"/>
      <point x="1095" y="1283"/>
      <point x="956" y="1314"/>
      <point x="758" y="1314" type="curve" smooth="yes"/>
      <point x="560" y="1314"/>
      <point x="349" y="1302"/>
      <point x="126" y="1277" type="curve"/>
      <point x="126" y="979" type="line"/>
      <point x="172" y="983"/>
      <point x="218" y="986"/>
      <point x="264" y="990" type="curve"/>
      <point x="264" y="395" type="line" smooth="yes"/>
      <point x="264" y="318"/>
      <point x="246" y="288"/>
      <point x="177" y="288" type="curve" smooth="yes"/>
      <point x="142" y="288"/>
      <point x="100" y="293"/>
      <point x="50" y="302" type="curve"/>
      <point x="50" y="23" type="line"/>
      <point x="112" y="-4"/>
      <point x="168" y="-19"/>
    </contour>
    <contour>
      <point x="719" y="0" type="move" name="bottom"/>
    </contour>
    <contour>
      <point x="20" y="0" type="move" name="bottomleft"/>
    </contour>
    <contour>
      <point x="781" y="662" type="move" name="center"/>
    </contour>
    <contour>
      <point x="719" y="1133" type="move" name="top"/>
    </contour>
    <contour>
      <point x="20" y="1133" type="move" name="topleft"/>
    </contour>
  </outline>
</glyph>
<glyph name="dasiaoxia" format="1">
  <advance width="913"/>
  <unicode hex="1FDE"/>
  <outline>
    <contour>
      <point x="449" y="1139" type="line"/>
      <point x="623" y="1139" type="line"/>
      <point x="724" y="1263"/>
      <point x="792" y="1365"/>
      <point x="827" y="1446" type="curve"/>
      <point x="827" y="1466" type="line"/>
      <point x="520" y="1466" type="line"/>
      <point x="504" y="1374"/>
      <point x="480" y="1274"/>
      <point x="449" y="1165" type="curve"/>
    </contour>
    <contour>
      <point x="244" y="1118" type="curve" smooth="yes"/>
      <point x="340" y="1118"/>
      <point x="395" y="1157"/>
      <point x="395" y="1214" type="curve" smooth="yes"/>
      <point x="395" y="1257"/>
      <point x="371" y="1281"/>
      <point x="324" y="1288" type="curve" smooth="yes"/>
      <point x="291" y="1292"/>
      <point x="272" y="1296"/>
      <point x="272" y="1321" type="curve" smooth="yes"/>
      <point x="272" y="1337"/>
      <point x="282" y="1349"/>
      <point x="303" y="1358" type="curve"/>
      <point x="324" y="1366"/>
      <point x="362" y="1373"/>
      <point x="418" y="1378" type="curve"/>
      <point x="418" y="1481" type="line"/>
      <point x="201" y="1470"/>
      <point x="92" y="1401"/>
      <point x="92" y="1274" type="curve" smooth="yes"/>
      <point x="92" y="1177"/>
      <point x="153" y="1118"/>
    </contour>
    <contour>
      <point x="460" y="1133" type="move" name="_top"/>
    </contour>
    <contour>
      <point x="852.846" y="1462" type="move" name="_topleft"/>
    </contour>
    <contour>
      <point x="460" y="1481" type="move" name="top"/>
    </contour>
  </outline>
</glyph>
<glyph name="horizontalbar" format="1">
  <advance width="2048"/>
  <unicode hex="2015"/>
  <note>
    afii00208
  </note>
  <outline>
    <contour>
      <point x="76" y="414" type="line"/>
      <point x="1972" y="414" type="line"/>
      <point x="1972" y="690" type="line"/>
      <point x="76" y="690" type="line"/>
    </contour>
  </outline>
</glyph>
<glyph name="quotesinglbase" format="1">
  <advance width="633"/>
  <unicode hex="201A"/>
  <note>
    quotesinglbase
  </note>
  <outline>
    <contour>
      <point x="57" y="-285" type="curve"/>
      <point x="336" y="-285" type="line"/>
      <point x="389" y="-165"/>
      <point x="447" y="22"/>
      <point x="512" y="276" type="curve"/>
      <point x="498" y="299" type="line"/>
      <point x="156" y="299" type="line"/>
      <point x="141" y="162"/>
      <point x="96" y="-101"/>
    </contour>
  </outline>
</glyph>
<glyph name="bullet" format="1">
  <advance width="803"/>
  <unicode hex="2022"/>
  <note>
    bullet
  </note>
  <outline>
    <contour>
      <point x="401" y="387" type="curve" smooth="yes"/>
      <point x="606" y="387"/>
      <point x="729" y="519"/>
      <point x="729" y="748" type="curve" smooth="yes"/>
      <point x="729" y="976"/>
      <point x="612" y="1108"/>
      <point x="401" y="1108" type="curve" smooth="yes"/>
      <point x="190" y="1108"/>
      <point x="74" y="980"/>
      <point x="74" y="748" type="curve" smooth="yes"/>
      <point x="74" y="515"/>
      <point x="194" y="387"/>
    </contour>
  </outline>
</glyph>
<glyph name="ellipsis" format="1">
  <advance width="1776"/>
  <unicode hex="2026"/>
  <note>
    ellipsis
  </note>
  <outline>
    <contour>
      <point x="1483" y="-25" type="curve" smooth="yes"/>
      <point x="1611" y="-25"/>
      <point x="1688" y="46"/>
      <point x="1688" y="166" type="curve" smooth="yes"/>
      <point x="1688" y="289"/>
      <point x="1615" y="358"/>
      <point x="1483" y="358" type="curve" smooth="yes"/>
      <point x="1344" y="358"/>
      <point x="1270" y="289"/>
      <point x="1270" y="166" type="curve" smooth="yes"/>
      <point x="1270" y="45"/>
      <point x="1351" y="-25"/>
    </contour>
    <contour>
      <point x="299" y="-25" type="curve" smooth="yes"/>
      <point x="427" y="-25"/>
      <point x="504" y="46"/>
      <point x="504" y="166" type="curve" smooth="yes"/>
      <point x="504" y="289"/>
      <point x="431" y="358"/>
      <point x="299" y="358" type="curve" smooth="yes"/>
      <point x="160" y="358"/>
      <point x="86" y="289"/>
      <point x="86" y="166" type="curve" smooth="yes"/>
      <point x="86" y="45"/>
      <point x="167" y="-25"/>
    </contour>
    <contour>
      <point x="891" y="-25" type="curve" smooth="yes"/>
      <point x="1019" y="-25"/>
      <point x="1096" y="46"/>
      <point x="1096" y="166" type="curve" smooth="yes"/>
      <point x="1096" y="289"/>
      <point x="1023" y="358"/>
      <point x="891" y="358" type="curve" smooth="yes"/>
      <point x="752" y="358"/>
      <point x="678" y="289"/>
      <point x="678" y="166" type="curve" smooth="yes"/>
      <point x="678" y="45"/>
      <point x="759" y="-25"/>
    </contour>
  </outline>
</glyph>
<glyph name="guilsinglleft" format="1">
  <advance width="819"/>
  <unicode hex="2039"/>
  <note>
    guilsinglleft
  </note>
  <outline>
    <contour>
      <point x="463" y="80" type="line"/>
      <point x="743" y="227" type="line"/>
      <point x="471" y="575" type="line"/>
      <point x="743" y="922" type="line"/>
      <point x="463" y="1071" type="line"/>
      <point x="74" y="588" type="line"/>
      <point x="74" y="561" type="line"/>
    </contour>
  </outline>
</glyph>
<glyph name="doubleverticalstrokeoverlaycomb" format="1">
  <advance width="0"/>
  <unicode hex="20E6"/>
  <note>
    doubleverticalstrokeoverlaycomb
  </note>
  <outline>
    <contour>
      <point x="151" y="-494" type="line"/>
      <point x="300" y="-494" type="line"/>
      <point x="300" y="1556" type="line"/>
      <point x="151" y="1556" type="line"/>
    </contour>
    <contour>
      <point x="-300" y="-494" type="line"/>
      <point x="-151" y="-494" type="line"/>
      <point x="-151" y="1556" type="line"/>
      <point x="-300" y="1556" type="line"/>
    </contour>
  </outline>
</glyph>
<glyph name="literSign" format="1">
  <advance width="1200"/>
  <unicode hex="2113"/>
  <note>
    afii61289
  </note>
  <outline>
    <contour>
      <point x="639" y="-16" type="curve" smooth="yes"/>
      <point x="956" y="-16"/>
      <point x="1098" y="111"/>
      <point x="1098" y="434" type="curve"/>
      <point x="799" y="434" type="line"/>
      <point x="799" y="313"/>
      <point x="776" y="240"/>
      <point x="707" y="240" type="curve" smooth="yes"/>
      <point x="639" y="240"/>
      <point x="610" y="281"/>
      <point x="610" y="397" type="curve" smooth="yes"/>
      <point x="610" y="580" type="line"/>
      <point x="933" y="676"/>
      <point x="1094" y="847"/>
      <point x="1094" y="1092" type="curve" smooth="yes"/>
      <point x="1094" y="1340"/>
      <point x="945" y="1479"/>
      <point x="680" y="1479" type="curve" smooth="yes"/>
      <point x="387" y="1479"/>
      <point x="231" y="1338"/>
      <point x="231" y="1063" type="curve" smooth="yes"/>
      <point x="231" y="733" type="line"/>
      <point x="172" y="717"/>
      <point x="114" y="702"/>
      <point x="55" y="686" type="curve"/>
      <point x="55" y="432" type="line"/>
      <point x="114" y="448"/>
      <point x="172" y="463"/>
      <point x="231" y="479" type="curve"/>
      <point x="231" y="420" type="line" smooth="yes"/>
      <point x="231" y="147"/>
      <point x="384" y="-16"/>
    </contour>
    <contour>
      <point x="610" y="844" type="curve"/>
      <point x="610" y="1124" type="line" smooth="yes"/>
      <point x="610" y="1204"/>
      <point x="629" y="1239"/>
      <point x="680" y="1239" type="curve" smooth="yes"/>
      <point x="729" y="1239"/>
      <point x="748" y="1194"/>
      <point x="748" y="1102" type="curve" smooth="yes"/>
      <point x="748" y="973"/>
      <point x="702" y="887"/>
    </contour>
  </outline>
</glyph>
<glyph name="servicemark" format="1">
  <advance width="1591"/>
  <unicode hex="2120"/>
  <note>
    uni2120
  </note>
  <outline>
    <contour>
      <point x="625" y="741" type="line"/>
      <point x="817" y="741" type="line"/>
      <point x="817" y="1141" type="line" smooth="yes"/>
      <point x="817" y="1172"/>
      <point x="815" y="1208"/>
      <point x="811" y="1251" type="curve"/>
      <point x="819" y="1251" type="line"/>
      <point x="963" y="741" type="line"/>
      <point x="1126" y="741" type="line"/>
      <point x="1278" y="1251" type="line"/>
      <point x="1286" y="1251" type="line"/>
      <point x="1282" y="1227"/>
      <point x="1280" y="1190"/>
      <point x="1280" y="1141" type="curve" smooth="yes"/>
      <point x="1280" y="741" type="line"/>
      <point x="1475" y="741" type="line"/>
      <point x="1475" y="1462" type="line"/>
      <point x="1198" y="1462" type="line"/>
      <point x="1049" y="983" type="line"/>
      <point x="911" y="1462" type="line"/>
      <point x="625" y="1462" type="line"/>
    </contour>
    <contour>
      <point x="266" y="733" type="curve" smooth="yes"/>
      <point x="433" y="733"/>
      <point x="541" y="817"/>
      <point x="541" y="950" type="curve" smooth="yes"/>
      <point x="541" y="1055"/>
      <point x="484" y="1116"/>
      <point x="371" y="1167" type="curve" smooth="yes"/>
      <point x="296" y="1200"/>
      <point x="270" y="1227"/>
      <point x="270" y="1264" type="curve" smooth="yes"/>
      <point x="270" y="1301"/>
      <point x="293" y="1319"/>
      <point x="338" y="1319" type="curve" smooth="yes"/>
      <point x="379" y="1319"/>
      <point x="426" y="1303"/>
      <point x="479" y="1272" type="curve"/>
      <point x="547" y="1413" type="line"/>
      <point x="474" y="1453"/>
      <point x="400" y="1473"/>
      <point x="326" y="1473" type="curve" smooth="yes"/>
      <point x="165" y="1473"/>
      <point x="66" y="1392"/>
      <point x="66" y="1255" type="curve" smooth="yes"/>
      <point x="66" y="1220"/>
      <point x="73" y="1188"/>
      <point x="86" y="1160" type="curve" smooth="yes"/>
      <point x="112" y="1104"/>
      <point x="154" y="1065"/>
      <point x="269" y="1016" type="curve" smooth="yes"/>
      <point x="314" y="996"/>
      <point x="336" y="972"/>
      <point x="336" y="944" type="curve" smooth="yes"/>
      <point x="336" y="907"/>
      <point x="307" y="887"/>
      <point x="264" y="887" type="curve" smooth="yes"/>
      <point x="199" y="887"/>
      <point x="133" y="906"/>
      <point x="66" y="944" type="curve"/>
      <point x="66" y="778" type="line"/>
      <point x="129" y="748"/>
      <point x="195" y="733"/>
    </contour>
  </outline>
</glyph>
<glyph name="integral" format="1">
  <advance width="879"/>
  <unicode hex="222B"/>
  <note>
    integral
  </note>
  <outline>
    <contour>
      <point x="205" y="-492" type="curve" smooth="yes"/>
      <point x="320" y="-492"/>
      <point x="411" y="-467"/>
      <point x="478" y="-420" type="curve" smooth="yes"/>
      <point x="570" y="-355"/>
      <point x="616" y="-248"/>
      <point x="616" y="-102" type="curve" smooth="yes"/>
      <point x="616" y="1130" type="line" smooth="yes"/>
      <point x="616" y="1173"/>
      <point x="625" y="1201"/>
      <point x="644" y="1217" type="curve" smooth="yes"/>
      <point x="658" y="1228"/>
      <point x="676" y="1233"/>
      <point x="700" y="1233" type="curve" smooth="yes"/>
      <point x="733" y="1233"/>
      <point x="792" y="1217"/>
      <point x="877" y="1184" type="curve"/>
      <point x="877" y="1501" type="line"/>
      <point x="804" y="1538"/>
      <point x="724" y="1556"/>
      <point x="637" y="1556" type="curve" smooth="yes"/>
      <point x="520" y="1556"/>
      <point x="426" y="1531"/>
      <point x="357" y="1482" type="curve" smooth="yes"/>
      <point x="266" y="1418"/>
      <point x="219" y="1312"/>
      <point x="219" y="1167" type="curve" smooth="yes"/>
      <point x="219" y="-68" type="line" smooth="yes"/>
      <point x="219" y="-105"/>
      <point x="212" y="-132"/>
      <point x="195" y="-148" type="curve" smooth="yes"/>
      <point x="181" y="-161"/>
      <point x="161" y="-168"/>
      <point x="133" y="-168" type="curve" smooth="yes"/>
      <point x="98" y="-168"/>
      <point x="44" y="-152"/>
      <point x="-29" y="-119" type="curve"/>
      <point x="-29" y="-436" type="line"/>
      <point x="42" y="-473"/>
      <point x="120" y="-492"/>
    </contour>
  </outline>
</glyph>
<glyph name="lessequal" format="1">
  <advance width="1159"/>
  <unicode hex="2264"/>
  <note>
    lessequal
  </note>
  <outline>
    <contour>
      <point x="1083" y="301" type="line"/>
      <point x="1083" y="596" type="line"/>
      <point x="463" y="848" type="line"/>
      <point x="1083" y="1131" type="line"/>
      <point x="1083" y="1428" type="line"/>
      <point x="72" y="922" type="line"/>
      <point x="72" y="750" type="line"/>
    </contour>
    <contour>
      <point x="72" y="1" type="line"/>
      <point x="1085" y="1" type="line"/>
      <point x="1085" y="269" type="line"/>
      <point x="72" y="269" type="line"/>
    </contour>
  </outline>
</glyph>
<glyph name="Aringacute.rvrn" format="1">
  <advance width="1487"/>
  <note>
    Aringacute
  </note>
  <outline>
    <contour>
      <point x="0" y="0" type="line"/>
      <point x="434" y="0" type="line"/>
      <point x="508" y="274" type="line"/>
      <point x="983" y="274" type="line"/>
      <point x="1055" y="0" type="line"/>
      <point x="1487" y="0" type="line"/>
      <point x="1010" y="1449" type="line"/>
      <point x="1011" y="1460"/>
      <point x="1012" y="1472"/>
      <point x="1012" y="1483" type="curve" smooth="yes"/>
      <point x="1012" y="1632"/>
      <point x="897" y="1735"/>
      <point x="740" y="1735" type="curve" smooth="yes"/>
      <point x="579" y="1735"/>
      <point x="476" y="1636"/>
      <point x="476" y="1481" type="curve" smooth="yes"/>
      <point x="476" y="1476"/>
      <point x="476" y="1471"/>
      <point x="476" y="1466" type="curve"/>
    </contour>
    <contour>
      <point x="590" y="598" type="line"/>
      <point x="651" y="827"/>
      <point x="690" y="981"/>
      <point x="708" y="1059" type="curve" smooth="yes"/>
      <point x="725" y="1137"/>
      <point x="737" y="1193"/>
      <point x="743" y="1227" type="curve"/>
      <point x="749" y="1195"/>
      <point x="762" y="1137"/>
      <point x="778" y="1073" type="curve" smooth="yes"/>
      <point x="799" y="988"/>
      <point x="824" y="889"/>
      <point x="901" y="598" type="curve"/>
    </contour>
    <contour>
      <point x="740" y="1397" type="curve" smooth="yes"/>
      <point x="684" y="1397"/>
      <point x="656" y="1432"/>
      <point x="656" y="1481" type="curve" smooth="yes"/>
      <point x="656" y="1532"/>
      <point x="693" y="1565"/>
      <point x="740" y="1565" type="curve" smooth="yes"/>
      <point x="787" y="1565"/>
      <point x="824" y="1532"/>
      <point x="824" y="1481" type="curve" smooth="yes"/>
      <point x="824" y="1432"/>
      <point x="787" y="1397"/>
    </contour>
    <contour>
      <point x="571" y="1790" type="line"/>
      <point x="831" y="1790" type="line"/>
      <point x="936" y="1822"/>
      <point x="1137" y="1906"/>
      <point x="1176" y="1942" type="curve"/>
      <point x="1176" y="1962" type="line"/>
      <point x="745" y="1962" type="line"/>
      <point x="700" y="1911"/>
      <point x="619" y="1846"/>
      <point x="571" y="1815" type="curve"/>
    </contour>
  </outline>
</glyph>
<glyph name="Iota.ss01" format="1">
  <advance width="901"/>
  <note>
    g359
  </note>
  <outline>
    <component base="I.ss01"/>
    <contour>
      <point x="33.484" y="1462" type="move" name="topleft"/>
    </contour>
  </outline>
</glyph>
<glyph name="brevecomb-cy" format="1">
  <advance width="1178"/>
  <note>
    g566
  </note>
  <outline>
    <contour>
      <point x="586" y="1241" type="curve" smooth="yes"/>
      <point x="889" y="1241"/>
      <point x="1054" y="1368"/>
      <point x="1081" y="1622" type="curve"/>
      <point x="750" y="1622" type="line"/>
      <point x="741" y="1498"/>
      <point x="686" y="1436"/>
      <point x="586" y="1436" type="curve" smooth="yes"/>
      <point x="475" y="1436"/>
      <point x="429" y="1491"/>
      <point x="422" y="1622" type="curve"/>
      <point x="96" y="1622" type="line"/>
      <point x="115" y="1362"/>
      <point x="267" y="1241"/>
    </contour>
    <contour>
      <point x="589" y="1133" type="move" name="_top"/>
    </contour>
  </outline>
</glyph>
<glyph name="dollar.001" format="1">
  <advance width="1200"/>
  <note>
    dollar
  </note>
  <outline>
    <contour>
      <point x="504" y="-119" type="line"/>
      <point x="711" y="-119" type="line"/>
      <point x="711" y="74" type="line"/>
      <point x="983" y="107"/>
      <point x="1128" y="253"/>
      <point x="1128" y="477" type="curve" smooth="yes"/>
      <point x="1128" y="676"/>
      <point x="1016" y="790"/>
      <point x="737" y="889" type="curve" smooth="yes"/>
      <point x="711" y="898" type="line"/>
      <point x="711" y="1123" type="line"/>
      <point x="798" y="1111"/>
      <point x="892" y="1082"/>
      <point x="993" y="1036" type="curve"/>
      <point x="1112" y="1321" type="line"/>
      <point x="977" y="1379"/>
      <point x="844" y="1413"/>
      <point x="711" y="1419" type="curve"/>
      <point x="711" y="1554" type="line"/>
      <point x="504" y="1554" type="line"/>
      <point x="504" y="1417" type="line"/>
      <point x="221" y="1388"/>
      <point x="80" y="1264"/>
      <point x="80" y="1044" type="curve" smooth="yes"/>
      <point x="80" y="972"/>
      <point x="92" y="912"/>
      <point x="116" y="864" type="curve" smooth="yes"/>
      <point x="163" y="767"/>
      <point x="265" y="690"/>
      <point x="434" y="627" type="curve" smooth="yes"/>
      <point x="504" y="601" type="line"/>
      <point x="504" y="364" type="line"/>
      <point x="374" y="379"/>
      <point x="213" y="431"/>
      <point x="82" y="498" type="curve"/>
      <point x="82" y="166" type="line"/>
      <point x="217" y="107"/>
      <point x="358" y="75"/>
      <point x="504" y="68" type="curve"/>
    </contour>
    <contour>
      <point x="711" y="389" type="curve"/>
      <point x="711" y="503" type="line"/>
      <point x="729" y="487"/>
      <point x="737" y="470"/>
      <point x="737" y="449" type="curve" smooth="yes"/>
      <point x="737" y="423"/>
      <point x="729" y="403"/>
    </contour>
    <contour>
      <point x="504" y="991" type="line"/>
      <point x="481" y="1009"/>
      <point x="471" y="1027"/>
      <point x="471" y="1053" type="curve" smooth="yes"/>
      <point x="471" y="1079"/>
      <point x="481" y="1098"/>
      <point x="504" y="1111" type="curve"/>
    </contour>
  </outline>
</glyph>
<glyph name="five.numr" format="1">
  <advance width="817"/>
  <note>
    fivesuperior
  </note>
  <outline>
    <contour>
      <point x="358" y="571" type="curve" smooth="yes"/>
      <point x="614" y="571"/>
      <point x="754" y="684"/>
      <point x="754" y="883" type="curve" smooth="yes"/>
      <point x="754" y="1054"/>
      <point x="629" y="1165"/>
      <point x="438" y="1165" type="curve" smooth="yes"/>
      <point x="413" y="1165"/>
      <point x="376" y="1162"/>
      <point x="328" y="1157" type="curve"/>
      <point x="342" y="1255" type="line"/>
      <point x="682" y="1255" type="line"/>
      <point x="682" y="1470" type="line"/>
      <point x="147" y="1470" type="line"/>
      <point x="109" y="1014" type="line"/>
      <point x="248" y="971" type="line"/>
      <point x="271" y="980"/>
      <point x="301" y="985"/>
      <point x="338" y="985" type="curve" smooth="yes"/>
      <point x="432" y="985"/>
      <point x="479" y="951"/>
      <point x="479" y="883" type="curve" smooth="yes"/>
      <point x="479" y="812"/>
      <point x="429" y="776"/>
      <point x="328" y="776" type="curve" smooth="yes"/>
      <point x="263" y="776"/>
      <point x="163" y="807"/>
      <point x="96" y="852" type="curve"/>
      <point x="96" y="621" type="line"/>
      <point x="164" y="588"/>
      <point x="251" y="571"/>
    </contour>
  </outline>
</glyph>
<glyph name="five.osf" format="1">
  <advance width="1200"/>
  <note>
    g904
  </note>
  <outline>
    <contour>
      <point x="512" y="-332" type="curve" smooth="yes"/>
      <point x="911" y="-332"/>
      <point x="1106" y="-152"/>
      <point x="1106" y="176" type="curve" smooth="yes"/>
      <point x="1106" y="269"/>
      <point x="1087" y="352"/>
      <point x="1050" y="423" type="curve" smooth="yes"/>
      <point x="974" y="566"/>
      <point x="832" y="647"/>
      <point x="664" y="647" type="curve" smooth="yes"/>
      <point x="538" y="647"/>
      <point x="558" y="635"/>
      <point x="213" y="581" type="curve"/>
      <point x="475" y="443" type="line"/>
      <point x="510" y="821" type="line"/>
      <point x="1008" y="821" type="line"/>
      <point x="1008" y="1151" type="line"/>
      <point x="174" y="1151" type="line"/>
      <point x="119" y="379" type="line"/>
      <point x="264" y="307" type="line"/>
      <point x="336" y="330"/>
      <point x="403" y="342"/>
      <point x="465" y="342" type="curve" smooth="yes"/>
      <point x="628" y="342"/>
      <point x="707" y="275"/>
      <point x="707" y="164" type="curve" smooth="yes"/>
      <point x="707" y="43"/>
      <point x="626" y="-20"/>
      <point x="479" y="-20" type="curve" smooth="yes"/>
      <point x="374" y="-20"/>
      <point x="210" y="19"/>
      <point x="94" y="72" type="curve"/>
      <point x="94" y="-252" type="line"/>
      <point x="204" y="-305"/>
      <point x="343" y="-332"/>
    </contour>
  </outline>
</glyph>
<glyph name="g568" format="1">
  <advance width="965"/>
  <note>
    g568
  </note>
  <outline>
    <contour>
      <point x="293" y="1229" type="line"/>
      <point x="526" y="1229" type="line"/>
      <point x="549" y="1266"/>
      <point x="609" y="1368"/>
      <point x="705" y="1534" type="curve"/>
      <point x="705" y="1556" type="line"/>
      <point x="350" y="1556" type="line"/>
      <point x="341" y="1480"/>
      <point x="322" y="1380"/>
      <point x="293" y="1257" type="curve"/>
    </contour>
  </outline>
</glyph>
<glyph name="g887" format="1">
  <advance width="0"/>
  <note>
    g887
  </note>
  <outline>
    <contour>
      <point x="-1122" y="1241" type="line"/>
      <point x="-918" y="1241" type="line"/>
      <point x="-853" y="1284"/>
      <point x="-783" y="1340"/>
      <point x="-707" y="1407" type="curve"/>
      <point x="-636" y="1343"/>
      <point x="-566" y="1288"/>
      <point x="-496" y="1241" type="curve"/>
      <point x="-291" y="1241" type="line"/>
      <point x="-291" y="1270" type="line"/>
      <point x="-354" y="1343"/>
      <point x="-425" y="1441"/>
      <point x="-506" y="1563" type="curve"/>
      <point x="-907" y="1563" type="line"/>
      <point x="-988" y="1441"/>
      <point x="-1059" y="1343"/>
      <point x="-1122" y="1270" type="curve"/>
    </contour>
    <contour>
      <point x="-385" y="1436" type="line"/>
      <point x="-199" y="1436" type="line"/>
      <point x="-78" y="1517"/>
      <point x="2" y="1586"/>
      <point x="43" y="1642" type="curve"/>
      <point x="43" y="1663" type="line"/>
      <point x="-242" y="1663" type="line"/>
      <point x="-279" y="1588"/>
      <point x="-326" y="1521"/>
      <point x="-385" y="1464" type="curve"/>
    </contour>
    <contour>
      <point x="-707" y="1124" type="move" name="_top"/>
    </contour>
  </outline>
</glyph>
<glyph name="one.lf" format="1">
  <advance width="1075"/>
  <note>
    g898
  </note>
  <outline>
    <contour>
      <point x="479" y="0" type="line"/>
      <point x="881" y="0" type="line"/>
      <point x="881" y="1462" type="line"/>
      <point x="524" y="1462" type="line"/>
      <point x="23" y="1053" type="line"/>
      <point x="227" y="801" type="line"/>
      <point x="393" y="938" type="line" smooth="yes"/>
      <point x="455" y="991"/>
      <point x="514" y="1062"/>
      <point x="561" y="1138" type="curve"/>
      <point x="492" y="1140" type="line"/>
      <point x="483" y="1035"/>
      <point x="479" y="913"/>
      <point x="479" y="774" type="curve" smooth="yes"/>
    </contour>
  </outline>
</glyph>
<glyph name="six.numr" format="1">
  <advance width="817"/>
  <note>
    sixsuperior
  </note>
  <outline>
    <contour>
      <point x="426" y="563" type="curve" smooth="yes"/>
      <point x="639" y="563"/>
      <point x="766" y="684"/>
      <point x="766" y="881" type="curve" smooth="yes"/>
      <point x="766" y="1060"/>
      <point x="679" y="1151"/>
      <point x="530" y="1151" type="curve" smooth="yes"/>
      <point x="434" y="1151"/>
      <point x="381" y="1121"/>
      <point x="342" y="1065" type="curve"/>
      <point x="332" y="1065" type="line"/>
      <point x="337" y="1205"/>
      <point x="415" y="1264"/>
      <point x="575" y="1264" type="curve" smooth="yes"/>
      <point x="624" y="1264"/>
      <point x="666" y="1261"/>
      <point x="702" y="1255" type="curve"/>
      <point x="702" y="1473" type="line"/>
      <point x="655" y="1480"/>
      <point x="608" y="1483"/>
      <point x="561" y="1483" type="curve" smooth="yes"/>
      <point x="217" y="1483"/>
      <point x="49" y="1318"/>
      <point x="49" y="954" type="curve" smooth="yes"/>
      <point x="49" y="711"/>
      <point x="190" y="563"/>
    </contour>
    <contour>
      <point x="399" y="772" type="curve" smooth="yes"/>
      <point x="348" y="772"/>
      <point x="315" y="825"/>
      <point x="315" y="889" type="curve" smooth="yes"/>
      <point x="315" y="936"/>
      <point x="346" y="979"/>
      <point x="410" y="979" type="curve" smooth="yes"/>
      <point x="457" y="979"/>
      <point x="485" y="945"/>
      <point x="485" y="881" type="curve" smooth="yes"/>
      <point x="485" y="806"/>
      <point x="462" y="772"/>
    </contour>
  </outline>
</glyph>
<glyph name="zero.osf" format="1">
  <advance width="1284"/>
  <note>
    g899
  </note>
  <outline>
    <contour>
      <point x="639" y="-20" type="curve" smooth="yes"/>
      <point x="1006" y="-20"/>
      <point x="1198" y="192"/>
      <point x="1198" y="580" type="curve" smooth="yes"/>
      <point x="1198" y="964"/>
      <point x="1002" y="1171"/>
      <point x="647" y="1171" type="curve" smooth="yes"/>
      <point x="288" y="1171"/>
      <point x="86" y="960"/>
      <point x="86" y="580" type="curve" smooth="yes"/>
      <point x="86" y="188"/>
      <point x="278" y="-20"/>
    </contour>
    <contour>
      <point x="645" y="291" type="curve" smooth="yes"/>
      <point x="526" y="291"/>
      <point x="483" y="377"/>
      <point x="483" y="580" type="curve" smooth="yes"/>
      <point x="483" y="781"/>
      <point x="527" y="860"/>
      <point x="643" y="860" type="curve" smooth="yes"/>
      <point x="756" y="860"/>
      <point x="801" y="787"/>
      <point x="801" y="580" type="curve" smooth="yes"/>
      <point x="801" y="377"/>
      <point x="760" y="291"/>
    </contour>
  </outline>
</glyph>
